M48
;Layer_Color=9474304
;FILE_FORMAT=2:5
INCH,TZ
;TYPE=PLATED
T1F00S00C0.01200
T2F00S00C0.03543
T3F00S00C0.11811
%
T01
X315000Y195000
X330000
X345000
X360000
X375000
X390000
X405000
X420000
X435000
Y210000
Y225000
Y240000
Y270000
X420000Y300000
X405000
X390000
X375000
X360000
X345000
X375000Y270000
X390000
Y255000
Y240000
Y225000
X405000
Y210000
X420000
X390000
X375000
Y225000
Y240000
Y255000
X360000Y225000
Y210000
X345000
Y225000
X330000
X315000Y210000
Y270000
X300000Y240000
Y225000
Y210000
Y195000
X285000
Y210000
Y225000
Y240000
X270000
Y255000
Y270000
Y285000
Y225000
Y210000
Y195000
X300000Y315000
X330000
X345000
X360000
X375000
X390000
X405000
X435000Y330000
T02
X287500Y256500
Y266500
Y276500
Y286500
Y296500
Y306500
Y316500
T03
X462598Y177165
X246063
Y354331
X462598
M30
