G04*
G04 #@! TF.GenerationSoftware,Altium Limited,Altium Designer,18.0.12 (696)*
G04*
G04 Layer_Physical_Order=2*
G04 Layer_Color=16711680*
%FSLAX25Y25*%
%MOIN*%
G70*
G01*
G75*
%ADD13C,0.01000*%
%ADD36C,0.05906*%
%ADD37R,0.05906X0.05906*%
%ADD38C,0.02500*%
%ADD39C,0.13386*%
G36*
X471329Y168435D02*
X237332D01*
Y363061D01*
X471329D01*
Y168435D01*
D02*
G37*
%LPC*%
G36*
X462598Y361558D02*
X461188Y361420D01*
X459832Y361008D01*
X458583Y360340D01*
X457488Y359441D01*
X456589Y358346D01*
X455921Y357097D01*
X455510Y355741D01*
X455371Y354331D01*
X455510Y352921D01*
X455921Y351565D01*
X456589Y350315D01*
X457488Y349220D01*
X458583Y348321D01*
X459832Y347653D01*
X461188Y347242D01*
X462598Y347103D01*
X464009Y347242D01*
X465364Y347653D01*
X466614Y348321D01*
X467709Y349220D01*
X468608Y350315D01*
X469276Y351565D01*
X469687Y352921D01*
X469826Y354331D01*
X469687Y355741D01*
X469276Y357097D01*
X468608Y358346D01*
X467709Y359441D01*
X466614Y360340D01*
X465364Y361008D01*
X464009Y361420D01*
X462598Y361558D01*
D02*
G37*
G36*
X246063D02*
X244653Y361420D01*
X243297Y361008D01*
X242048Y360340D01*
X240952Y359441D01*
X240053Y358346D01*
X239386Y357097D01*
X238974Y355741D01*
X238835Y354331D01*
X238974Y352921D01*
X239386Y351565D01*
X240053Y350315D01*
X240952Y349220D01*
X242048Y348321D01*
X243297Y347653D01*
X244653Y347242D01*
X246063Y347103D01*
X247473Y347242D01*
X248829Y347653D01*
X250079Y348321D01*
X251174Y349220D01*
X252073Y350315D01*
X252741Y351565D01*
X253152Y352921D01*
X253291Y354331D01*
X253152Y355741D01*
X252741Y357097D01*
X252073Y358346D01*
X251174Y359441D01*
X250079Y360340D01*
X248829Y361008D01*
X247473Y361420D01*
X246063Y361558D01*
D02*
G37*
G36*
X452756Y345600D02*
X255906D01*
X255480Y345515D01*
X255119Y345274D01*
X254878Y344914D01*
X254794Y344488D01*
Y187008D01*
X254878Y186582D01*
X255119Y186222D01*
X255480Y185981D01*
X255906Y185896D01*
X452756D01*
X453181Y185981D01*
X453542Y186222D01*
X453783Y186582D01*
X453868Y187008D01*
Y344488D01*
X453783Y344914D01*
X453542Y345274D01*
X453181Y345515D01*
X452756Y345600D01*
D02*
G37*
G36*
X462598Y184393D02*
X461188Y184254D01*
X459832Y183843D01*
X458583Y183175D01*
X457488Y182276D01*
X456589Y181181D01*
X455921Y179931D01*
X455510Y178575D01*
X455371Y177165D01*
X455510Y175755D01*
X455921Y174399D01*
X456589Y173150D01*
X457488Y172055D01*
X458583Y171156D01*
X459832Y170488D01*
X461188Y170077D01*
X462598Y169938D01*
X464009Y170077D01*
X465364Y170488D01*
X466614Y171156D01*
X467709Y172055D01*
X468608Y173150D01*
X469276Y174399D01*
X469687Y175755D01*
X469826Y177165D01*
X469687Y178575D01*
X469276Y179931D01*
X468608Y181181D01*
X467709Y182276D01*
X466614Y183175D01*
X465364Y183843D01*
X464009Y184254D01*
X462598Y184393D01*
D02*
G37*
G36*
X246063D02*
X244653Y184254D01*
X243297Y183843D01*
X242048Y183175D01*
X240952Y182276D01*
X240053Y181181D01*
X239386Y179931D01*
X238974Y178575D01*
X238835Y177165D01*
X238974Y175755D01*
X239386Y174399D01*
X240053Y173150D01*
X240952Y172055D01*
X242048Y171156D01*
X243297Y170488D01*
X244653Y170077D01*
X246063Y169938D01*
X247473Y170077D01*
X248829Y170488D01*
X250079Y171156D01*
X251174Y172055D01*
X252073Y173150D01*
X252741Y174399D01*
X253152Y175755D01*
X253291Y177165D01*
X253152Y178575D01*
X252741Y179931D01*
X252073Y181181D01*
X251174Y182276D01*
X250079Y183175D01*
X248829Y183843D01*
X247473Y184254D01*
X246063Y184393D01*
D02*
G37*
%LPD*%
G36*
X451644Y188120D02*
X257017D01*
Y343376D01*
X451644D01*
Y188120D01*
D02*
G37*
%LPC*%
G36*
X435500Y332195D02*
Y330500D01*
X437195D01*
X437119Y330878D01*
X436622Y331622D01*
X435878Y332119D01*
X435500Y332195D01*
D02*
G37*
G36*
X434500D02*
X434122Y332119D01*
X433378Y331622D01*
X432881Y330878D01*
X432805Y330500D01*
X434500D01*
Y332195D01*
D02*
G37*
G36*
X437195Y329500D02*
X435500D01*
Y327805D01*
X435878Y327881D01*
X436622Y328378D01*
X437119Y329122D01*
X437195Y329500D01*
D02*
G37*
G36*
X434500D02*
X432805D01*
X432881Y329122D01*
X433378Y328378D01*
X434122Y327881D01*
X434500Y327805D01*
Y329500D01*
D02*
G37*
G36*
X288000Y320421D02*
Y317000D01*
X291421D01*
X291351Y317532D01*
X290953Y318493D01*
X290319Y319319D01*
X289493Y319953D01*
X288532Y320351D01*
X288000Y320421D01*
D02*
G37*
G36*
X287000D02*
X286468Y320351D01*
X285507Y319953D01*
X284681Y319319D01*
X284047Y318493D01*
X283649Y317532D01*
X283579Y317000D01*
X287000D01*
Y320421D01*
D02*
G37*
G36*
X405500Y317195D02*
Y315500D01*
X407195D01*
X407120Y315878D01*
X406622Y316622D01*
X405878Y317120D01*
X405500Y317195D01*
D02*
G37*
G36*
X404500D02*
X404122Y317120D01*
X403378Y316622D01*
X402880Y315878D01*
X402805Y315500D01*
X404500D01*
Y317195D01*
D02*
G37*
G36*
X390500D02*
Y315500D01*
X392195D01*
X392120Y315878D01*
X391622Y316622D01*
X390878Y317120D01*
X390500Y317195D01*
D02*
G37*
G36*
X389500D02*
X389122Y317120D01*
X388378Y316622D01*
X387880Y315878D01*
X387805Y315500D01*
X389500D01*
Y317195D01*
D02*
G37*
G36*
X375500D02*
Y315500D01*
X377195D01*
X377119Y315878D01*
X376622Y316622D01*
X375878Y317120D01*
X375500Y317195D01*
D02*
G37*
G36*
X374500D02*
X374122Y317120D01*
X373378Y316622D01*
X372881Y315878D01*
X372805Y315500D01*
X374500D01*
Y317195D01*
D02*
G37*
G36*
X360500D02*
Y315500D01*
X362195D01*
X362120Y315878D01*
X361622Y316622D01*
X360878Y317120D01*
X360500Y317195D01*
D02*
G37*
G36*
X359500D02*
X359122Y317120D01*
X358378Y316622D01*
X357880Y315878D01*
X357805Y315500D01*
X359500D01*
Y317195D01*
D02*
G37*
G36*
X345500D02*
Y315500D01*
X347195D01*
X347119Y315878D01*
X346622Y316622D01*
X345878Y317120D01*
X345500Y317195D01*
D02*
G37*
G36*
X344500D02*
X344122Y317120D01*
X343378Y316622D01*
X342881Y315878D01*
X342805Y315500D01*
X344500D01*
Y317195D01*
D02*
G37*
G36*
X330500D02*
Y315500D01*
X332195D01*
X332119Y315878D01*
X331622Y316622D01*
X330878Y317120D01*
X330500Y317195D01*
D02*
G37*
G36*
X329500D02*
X329122Y317120D01*
X328378Y316622D01*
X327881Y315878D01*
X327805Y315500D01*
X329500D01*
Y317195D01*
D02*
G37*
G36*
X300500D02*
Y315500D01*
X302195D01*
X302119Y315878D01*
X301622Y316622D01*
X300878Y317120D01*
X300500Y317195D01*
D02*
G37*
G36*
X299500D02*
X299122Y317120D01*
X298378Y316622D01*
X297881Y315878D01*
X297805Y315500D01*
X299500D01*
Y317195D01*
D02*
G37*
G36*
X407195Y314500D02*
X405500D01*
Y312805D01*
X405878Y312880D01*
X406622Y313378D01*
X407120Y314122D01*
X407195Y314500D01*
D02*
G37*
G36*
X404500D02*
X402805D01*
X402880Y314122D01*
X403378Y313378D01*
X404122Y312880D01*
X404500Y312805D01*
Y314500D01*
D02*
G37*
G36*
X392195D02*
X390500D01*
Y312805D01*
X390878Y312880D01*
X391622Y313378D01*
X392120Y314122D01*
X392195Y314500D01*
D02*
G37*
G36*
X389500D02*
X387805D01*
X387880Y314122D01*
X388378Y313378D01*
X389122Y312880D01*
X389500Y312805D01*
Y314500D01*
D02*
G37*
G36*
X377195D02*
X375500D01*
Y312805D01*
X375878Y312880D01*
X376622Y313378D01*
X377119Y314122D01*
X377195Y314500D01*
D02*
G37*
G36*
X374500D02*
X372805D01*
X372881Y314122D01*
X373378Y313378D01*
X374122Y312880D01*
X374500Y312805D01*
Y314500D01*
D02*
G37*
G36*
X362195D02*
X360500D01*
Y312805D01*
X360878Y312880D01*
X361622Y313378D01*
X362120Y314122D01*
X362195Y314500D01*
D02*
G37*
G36*
X359500D02*
X357805D01*
X357880Y314122D01*
X358378Y313378D01*
X359122Y312880D01*
X359500Y312805D01*
Y314500D01*
D02*
G37*
G36*
X347195D02*
X345500D01*
Y312805D01*
X345878Y312880D01*
X346622Y313378D01*
X347119Y314122D01*
X347195Y314500D01*
D02*
G37*
G36*
X344500D02*
X342805D01*
X342881Y314122D01*
X343378Y313378D01*
X344122Y312880D01*
X344500Y312805D01*
Y314500D01*
D02*
G37*
G36*
X332195D02*
X330500D01*
Y312805D01*
X330878Y312880D01*
X331622Y313378D01*
X332119Y314122D01*
X332195Y314500D01*
D02*
G37*
G36*
X329500D02*
X327805D01*
X327881Y314122D01*
X328378Y313378D01*
X329122Y312880D01*
X329500Y312805D01*
Y314500D01*
D02*
G37*
G36*
X302195D02*
X300500D01*
Y312805D01*
X300878Y312880D01*
X301622Y313378D01*
X302119Y314122D01*
X302195Y314500D01*
D02*
G37*
G36*
X299500D02*
X297805D01*
X297881Y314122D01*
X298378Y313378D01*
X299122Y312880D01*
X299500Y312805D01*
Y314500D01*
D02*
G37*
G36*
X291421Y316000D02*
X288000D01*
Y312579D01*
X288532Y312649D01*
X289493Y313047D01*
X290319Y313681D01*
X290953Y314507D01*
X291351Y315468D01*
X291421Y316000D01*
D02*
G37*
G36*
X287000D02*
X283579D01*
X283649Y315468D01*
X284047Y314507D01*
X284681Y313681D01*
X285507Y313047D01*
X286468Y312649D01*
X287000Y312579D01*
Y316000D01*
D02*
G37*
G36*
X287500Y309982D02*
X286599Y309864D01*
X285759Y309516D01*
X285037Y308962D01*
X284484Y308241D01*
X284136Y307401D01*
X284017Y306500D01*
X284136Y305599D01*
X284484Y304759D01*
X285037Y304037D01*
X285759Y303484D01*
X286599Y303136D01*
X287500Y303017D01*
X288401Y303136D01*
X289241Y303484D01*
X289291Y303522D01*
X289500Y303480D01*
X289890Y303558D01*
X290221Y303779D01*
X290442Y304110D01*
X290520Y304500D01*
X290478Y304709D01*
X290516Y304759D01*
X290864Y305599D01*
X290983Y306500D01*
X290864Y307401D01*
X290516Y308241D01*
X289963Y308962D01*
X289241Y309516D01*
X288401Y309864D01*
X287500Y309982D01*
D02*
G37*
G36*
X420500Y302195D02*
Y300500D01*
X422195D01*
X422119Y300878D01*
X421622Y301622D01*
X420878Y302119D01*
X420500Y302195D01*
D02*
G37*
G36*
X419500D02*
X419122Y302119D01*
X418378Y301622D01*
X417881Y300878D01*
X417805Y300500D01*
X419500D01*
Y302195D01*
D02*
G37*
G36*
X405500D02*
Y300500D01*
X407195D01*
X407120Y300878D01*
X406622Y301622D01*
X405878Y302119D01*
X405500Y302195D01*
D02*
G37*
G36*
X404500D02*
X404122Y302119D01*
X403378Y301622D01*
X402880Y300878D01*
X402805Y300500D01*
X404500D01*
Y302195D01*
D02*
G37*
G36*
X390500D02*
Y300500D01*
X392195D01*
X392120Y300878D01*
X391622Y301622D01*
X390878Y302119D01*
X390500Y302195D01*
D02*
G37*
G36*
X389500D02*
X389122Y302119D01*
X388378Y301622D01*
X387880Y300878D01*
X387805Y300500D01*
X389500D01*
Y302195D01*
D02*
G37*
G36*
X375500D02*
Y300500D01*
X377195D01*
X377119Y300878D01*
X376622Y301622D01*
X375878Y302119D01*
X375500Y302195D01*
D02*
G37*
G36*
X374500D02*
X374122Y302119D01*
X373378Y301622D01*
X372881Y300878D01*
X372805Y300500D01*
X374500D01*
Y302195D01*
D02*
G37*
G36*
X360500D02*
Y300500D01*
X362195D01*
X362120Y300878D01*
X361622Y301622D01*
X360878Y302119D01*
X360500Y302195D01*
D02*
G37*
G36*
X359500D02*
X359122Y302119D01*
X358378Y301622D01*
X357880Y300878D01*
X357805Y300500D01*
X359500D01*
Y302195D01*
D02*
G37*
G36*
X345500D02*
Y300500D01*
X347195D01*
X347119Y300878D01*
X346622Y301622D01*
X345878Y302119D01*
X345500Y302195D01*
D02*
G37*
G36*
X344500D02*
X344122Y302119D01*
X343378Y301622D01*
X342881Y300878D01*
X342805Y300500D01*
X344500D01*
Y302195D01*
D02*
G37*
G36*
X422195Y299500D02*
X420500D01*
Y297805D01*
X420878Y297881D01*
X421622Y298378D01*
X422119Y299122D01*
X422195Y299500D01*
D02*
G37*
G36*
X419500D02*
X417805D01*
X417881Y299122D01*
X418378Y298378D01*
X419122Y297881D01*
X419500Y297805D01*
Y299500D01*
D02*
G37*
G36*
X407195D02*
X405500D01*
Y297805D01*
X405878Y297881D01*
X406622Y298378D01*
X407120Y299122D01*
X407195Y299500D01*
D02*
G37*
G36*
X404500D02*
X402805D01*
X402880Y299122D01*
X403378Y298378D01*
X404122Y297881D01*
X404500Y297805D01*
Y299500D01*
D02*
G37*
G36*
X392195D02*
X390500D01*
Y297805D01*
X390878Y297881D01*
X391622Y298378D01*
X392120Y299122D01*
X392195Y299500D01*
D02*
G37*
G36*
X389500D02*
X387805D01*
X387880Y299122D01*
X388378Y298378D01*
X389122Y297881D01*
X389500Y297805D01*
Y299500D01*
D02*
G37*
G36*
X377195D02*
X375500D01*
Y297805D01*
X375878Y297881D01*
X376622Y298378D01*
X377119Y299122D01*
X377195Y299500D01*
D02*
G37*
G36*
X374500D02*
X372805D01*
X372881Y299122D01*
X373378Y298378D01*
X374122Y297881D01*
X374500Y297805D01*
Y299500D01*
D02*
G37*
G36*
X362195D02*
X360500D01*
Y297805D01*
X360878Y297881D01*
X361622Y298378D01*
X362120Y299122D01*
X362195Y299500D01*
D02*
G37*
G36*
X359500D02*
X357805D01*
X357880Y299122D01*
X358378Y298378D01*
X359122Y297881D01*
X359500Y297805D01*
Y299500D01*
D02*
G37*
G36*
X347195D02*
X345500D01*
Y297805D01*
X345878Y297881D01*
X346622Y298378D01*
X347119Y299122D01*
X347195Y299500D01*
D02*
G37*
G36*
X344500D02*
X342805D01*
X342881Y299122D01*
X343378Y298378D01*
X344122Y297881D01*
X344500Y297805D01*
Y299500D01*
D02*
G37*
G36*
X287500Y299983D02*
X286599Y299864D01*
X285759Y299516D01*
X285037Y298962D01*
X284484Y298241D01*
X284136Y297401D01*
X284017Y296500D01*
X284136Y295599D01*
X284484Y294759D01*
X285037Y294038D01*
X285759Y293484D01*
X286599Y293136D01*
X287500Y293018D01*
X288401Y293136D01*
X289241Y293484D01*
X289963Y294038D01*
X290516Y294759D01*
X290864Y295599D01*
X290983Y296500D01*
X290864Y297401D01*
X290516Y298241D01*
X289963Y298962D01*
X289241Y299516D01*
X288401Y299864D01*
X287500Y299983D01*
D02*
G37*
G36*
X270500Y287195D02*
Y285500D01*
X272195D01*
X272119Y285878D01*
X271622Y286622D01*
X270878Y287120D01*
X270500Y287195D01*
D02*
G37*
G36*
X269500D02*
X269122Y287120D01*
X268378Y286622D01*
X267881Y285878D01*
X267805Y285500D01*
X269500D01*
Y287195D01*
D02*
G37*
G36*
X287500Y289983D02*
X286599Y289864D01*
X285759Y289516D01*
X285037Y288963D01*
X284484Y288241D01*
X284136Y287401D01*
X284017Y286500D01*
X284136Y285599D01*
X284484Y284759D01*
X285037Y284037D01*
X285759Y283484D01*
X286599Y283136D01*
X287500Y283017D01*
X288401Y283136D01*
X289241Y283484D01*
X289963Y284037D01*
X290516Y284759D01*
X290864Y285599D01*
X290983Y286500D01*
X290864Y287401D01*
X290516Y288241D01*
X289963Y288963D01*
X289241Y289516D01*
X288401Y289864D01*
X287500Y289983D01*
D02*
G37*
G36*
X272195Y284500D02*
X270500D01*
Y282805D01*
X270878Y282880D01*
X271622Y283378D01*
X272119Y284122D01*
X272195Y284500D01*
D02*
G37*
G36*
X269500D02*
X267805D01*
X267881Y284122D01*
X268378Y283378D01*
X269122Y282880D01*
X269500Y282805D01*
Y284500D01*
D02*
G37*
G36*
X287500Y279982D02*
X286599Y279864D01*
X285759Y279516D01*
X285037Y278962D01*
X284484Y278241D01*
X284136Y277401D01*
X284017Y276500D01*
X284136Y275599D01*
X284484Y274759D01*
X285037Y274038D01*
X285759Y273484D01*
X286599Y273136D01*
X287500Y273018D01*
X288401Y273136D01*
X289241Y273484D01*
X289963Y274038D01*
X290516Y274759D01*
X290864Y275599D01*
X290983Y276500D01*
X290864Y277401D01*
X290516Y278241D01*
X289963Y278962D01*
X289241Y279516D01*
X288401Y279864D01*
X287500Y279982D01*
D02*
G37*
G36*
X435500Y272195D02*
Y270500D01*
X437195D01*
X437119Y270878D01*
X436622Y271622D01*
X435878Y272119D01*
X435500Y272195D01*
D02*
G37*
G36*
X434500D02*
X434122Y272119D01*
X433378Y271622D01*
X432881Y270878D01*
X432805Y270500D01*
X434500D01*
Y272195D01*
D02*
G37*
G36*
X390500D02*
Y270500D01*
X392195D01*
X392120Y270878D01*
X391622Y271622D01*
X390878Y272119D01*
X390500Y272195D01*
D02*
G37*
G36*
X389500D02*
X389122Y272119D01*
X388378Y271622D01*
X387880Y270878D01*
X387805Y270500D01*
X389500D01*
Y272195D01*
D02*
G37*
G36*
X375500D02*
Y270500D01*
X377195D01*
X377119Y270878D01*
X376622Y271622D01*
X375878Y272119D01*
X375500Y272195D01*
D02*
G37*
G36*
X374500D02*
X374122Y272119D01*
X373378Y271622D01*
X372881Y270878D01*
X372805Y270500D01*
X374500D01*
Y272195D01*
D02*
G37*
G36*
X315500D02*
Y270500D01*
X317195D01*
X317120Y270878D01*
X316622Y271622D01*
X315878Y272119D01*
X315500Y272195D01*
D02*
G37*
G36*
X314500D02*
X314122Y272119D01*
X313378Y271622D01*
X312880Y270878D01*
X312805Y270500D01*
X314500D01*
Y272195D01*
D02*
G37*
G36*
X270500D02*
Y270500D01*
X272195D01*
X272119Y270878D01*
X271622Y271622D01*
X270878Y272119D01*
X270500Y272195D01*
D02*
G37*
G36*
X269500D02*
X269122Y272119D01*
X268378Y271622D01*
X267881Y270878D01*
X267805Y270500D01*
X269500D01*
Y272195D01*
D02*
G37*
G36*
X437195Y269500D02*
X435500D01*
Y267805D01*
X435878Y267881D01*
X436622Y268378D01*
X437119Y269122D01*
X437195Y269500D01*
D02*
G37*
G36*
X434500D02*
X432805D01*
X432881Y269122D01*
X433378Y268378D01*
X434122Y267881D01*
X434500Y267805D01*
Y269500D01*
D02*
G37*
G36*
X392195D02*
X390500D01*
Y267805D01*
X390878Y267881D01*
X391622Y268378D01*
X392120Y269122D01*
X392195Y269500D01*
D02*
G37*
G36*
X389500D02*
X387805D01*
X387880Y269122D01*
X388378Y268378D01*
X389122Y267881D01*
X389500Y267805D01*
Y269500D01*
D02*
G37*
G36*
X377195D02*
X375500D01*
Y267805D01*
X375878Y267881D01*
X376622Y268378D01*
X377119Y269122D01*
X377195Y269500D01*
D02*
G37*
G36*
X374500D02*
X372805D01*
X372881Y269122D01*
X373378Y268378D01*
X374122Y267881D01*
X374500Y267805D01*
Y269500D01*
D02*
G37*
G36*
X317195D02*
X315500D01*
Y267805D01*
X315878Y267881D01*
X316622Y268378D01*
X317120Y269122D01*
X317195Y269500D01*
D02*
G37*
G36*
X314500D02*
X312805D01*
X312880Y269122D01*
X313378Y268378D01*
X314122Y267881D01*
X314500Y267805D01*
Y269500D01*
D02*
G37*
G36*
X272195D02*
X270500D01*
Y267805D01*
X270878Y267881D01*
X271622Y268378D01*
X272119Y269122D01*
X272195Y269500D01*
D02*
G37*
G36*
X269500D02*
X267805D01*
X267881Y269122D01*
X268378Y268378D01*
X269122Y267881D01*
X269500Y267805D01*
Y269500D01*
D02*
G37*
G36*
X287500Y269983D02*
X286599Y269864D01*
X285759Y269516D01*
X285037Y268963D01*
X284484Y268241D01*
X284136Y267401D01*
X284017Y266500D01*
X284136Y265599D01*
X284484Y264759D01*
X285037Y264037D01*
X285759Y263484D01*
X286599Y263136D01*
X287500Y263018D01*
X288401Y263136D01*
X289241Y263484D01*
X289963Y264037D01*
X290516Y264759D01*
X290864Y265599D01*
X290983Y266500D01*
X290864Y267401D01*
X290516Y268241D01*
X289963Y268963D01*
X289241Y269516D01*
X288401Y269864D01*
X287500Y269983D01*
D02*
G37*
G36*
X390500Y257195D02*
Y255500D01*
X392195D01*
X392120Y255878D01*
X391622Y256622D01*
X390878Y257119D01*
X390500Y257195D01*
D02*
G37*
G36*
X389500D02*
X389122Y257119D01*
X388378Y256622D01*
X387880Y255878D01*
X387805Y255500D01*
X389500D01*
Y257195D01*
D02*
G37*
G36*
X375500D02*
Y255500D01*
X377195D01*
X377119Y255878D01*
X376622Y256622D01*
X375878Y257119D01*
X375500Y257195D01*
D02*
G37*
G36*
X374500D02*
X374122Y257119D01*
X373378Y256622D01*
X372881Y255878D01*
X372805Y255500D01*
X374500D01*
Y257195D01*
D02*
G37*
G36*
X270500D02*
Y255500D01*
X272195D01*
X272119Y255878D01*
X271622Y256622D01*
X270878Y257119D01*
X270500Y257195D01*
D02*
G37*
G36*
X269500D02*
X269122Y257119D01*
X268378Y256622D01*
X267881Y255878D01*
X267805Y255500D01*
X269500D01*
Y257195D01*
D02*
G37*
G36*
X290953Y259953D02*
X284047D01*
Y253047D01*
X290953D01*
Y259953D01*
D02*
G37*
G36*
X392195Y254500D02*
X390500D01*
Y252805D01*
X390878Y252881D01*
X391622Y253378D01*
X392120Y254122D01*
X392195Y254500D01*
D02*
G37*
G36*
X389500D02*
X387805D01*
X387880Y254122D01*
X388378Y253378D01*
X389122Y252881D01*
X389500Y252805D01*
Y254500D01*
D02*
G37*
G36*
X377195D02*
X375500D01*
Y252805D01*
X375878Y252881D01*
X376622Y253378D01*
X377119Y254122D01*
X377195Y254500D01*
D02*
G37*
G36*
X374500D02*
X372805D01*
X372881Y254122D01*
X373378Y253378D01*
X374122Y252881D01*
X374500Y252805D01*
Y254500D01*
D02*
G37*
G36*
X272195D02*
X270500D01*
Y252805D01*
X270878Y252881D01*
X271622Y253378D01*
X272119Y254122D01*
X272195Y254500D01*
D02*
G37*
G36*
X269500D02*
X267805D01*
X267881Y254122D01*
X268378Y253378D01*
X269122Y252881D01*
X269500Y252805D01*
Y254500D01*
D02*
G37*
G36*
X435500Y242195D02*
Y240500D01*
X437195D01*
X437119Y240878D01*
X436622Y241622D01*
X435878Y242120D01*
X435500Y242195D01*
D02*
G37*
G36*
X434500D02*
X434122Y242120D01*
X433378Y241622D01*
X432881Y240878D01*
X432805Y240500D01*
X434500D01*
Y242195D01*
D02*
G37*
G36*
X390500D02*
Y240500D01*
X392195D01*
X392120Y240878D01*
X391622Y241622D01*
X390878Y242120D01*
X390500Y242195D01*
D02*
G37*
G36*
X389500D02*
X389122Y242120D01*
X388378Y241622D01*
X387880Y240878D01*
X387805Y240500D01*
X389500D01*
Y242195D01*
D02*
G37*
G36*
X375500D02*
Y240500D01*
X377195D01*
X377119Y240878D01*
X376622Y241622D01*
X375878Y242120D01*
X375500Y242195D01*
D02*
G37*
G36*
X374500D02*
X374122Y242120D01*
X373378Y241622D01*
X372881Y240878D01*
X372805Y240500D01*
X374500D01*
Y242195D01*
D02*
G37*
G36*
X300500D02*
Y240500D01*
X302195D01*
X302119Y240878D01*
X301622Y241622D01*
X300878Y242120D01*
X300500Y242195D01*
D02*
G37*
G36*
X299500D02*
X299122Y242120D01*
X298378Y241622D01*
X297881Y240878D01*
X297805Y240500D01*
X299500D01*
Y242195D01*
D02*
G37*
G36*
X285500D02*
Y240500D01*
X287195D01*
X287120Y240878D01*
X286622Y241622D01*
X285878Y242120D01*
X285500Y242195D01*
D02*
G37*
G36*
X284500D02*
X284122Y242120D01*
X283378Y241622D01*
X282880Y240878D01*
X282805Y240500D01*
X284500D01*
Y242195D01*
D02*
G37*
G36*
X270500D02*
Y240500D01*
X272195D01*
X272119Y240878D01*
X271622Y241622D01*
X270878Y242120D01*
X270500Y242195D01*
D02*
G37*
G36*
X269500D02*
X269122Y242120D01*
X268378Y241622D01*
X267881Y240878D01*
X267805Y240500D01*
X269500D01*
Y242195D01*
D02*
G37*
G36*
X437195Y239500D02*
X435500D01*
Y237805D01*
X435878Y237880D01*
X436622Y238378D01*
X437119Y239122D01*
X437195Y239500D01*
D02*
G37*
G36*
X434500D02*
X432805D01*
X432881Y239122D01*
X433378Y238378D01*
X434122Y237880D01*
X434500Y237805D01*
Y239500D01*
D02*
G37*
G36*
X392195D02*
X390500D01*
Y237805D01*
X390878Y237880D01*
X391622Y238378D01*
X392120Y239122D01*
X392195Y239500D01*
D02*
G37*
G36*
X389500D02*
X387805D01*
X387880Y239122D01*
X388378Y238378D01*
X389122Y237880D01*
X389500Y237805D01*
Y239500D01*
D02*
G37*
G36*
X377195D02*
X375500D01*
Y237805D01*
X375878Y237880D01*
X376622Y238378D01*
X377119Y239122D01*
X377195Y239500D01*
D02*
G37*
G36*
X374500D02*
X372805D01*
X372881Y239122D01*
X373378Y238378D01*
X374122Y237880D01*
X374500Y237805D01*
Y239500D01*
D02*
G37*
G36*
X302195D02*
X300500D01*
Y237805D01*
X300878Y237880D01*
X301622Y238378D01*
X302119Y239122D01*
X302195Y239500D01*
D02*
G37*
G36*
X299500D02*
X297805D01*
X297881Y239122D01*
X298378Y238378D01*
X299122Y237880D01*
X299500Y237805D01*
Y239500D01*
D02*
G37*
G36*
X287195D02*
X285500D01*
Y237805D01*
X285878Y237880D01*
X286622Y238378D01*
X287120Y239122D01*
X287195Y239500D01*
D02*
G37*
G36*
X284500D02*
X282805D01*
X282880Y239122D01*
X283378Y238378D01*
X284122Y237880D01*
X284500Y237805D01*
Y239500D01*
D02*
G37*
G36*
X272195D02*
X270500D01*
Y237805D01*
X270878Y237880D01*
X271622Y238378D01*
X272119Y239122D01*
X272195Y239500D01*
D02*
G37*
G36*
X269500D02*
X267805D01*
X267881Y239122D01*
X268378Y238378D01*
X269122Y237880D01*
X269500Y237805D01*
Y239500D01*
D02*
G37*
G36*
X435500Y227195D02*
Y225500D01*
X437195D01*
X437119Y225878D01*
X436622Y226622D01*
X435878Y227119D01*
X435500Y227195D01*
D02*
G37*
G36*
X434500D02*
X434122Y227119D01*
X433378Y226622D01*
X432881Y225878D01*
X432805Y225500D01*
X434500D01*
Y227195D01*
D02*
G37*
G36*
X405500D02*
Y225500D01*
X407195D01*
X407120Y225878D01*
X406622Y226622D01*
X405878Y227119D01*
X405500Y227195D01*
D02*
G37*
G36*
X404500D02*
X404122Y227119D01*
X403378Y226622D01*
X402880Y225878D01*
X402805Y225500D01*
X404500D01*
Y227195D01*
D02*
G37*
G36*
X390500D02*
Y225500D01*
X392195D01*
X392120Y225878D01*
X391622Y226622D01*
X390878Y227119D01*
X390500Y227195D01*
D02*
G37*
G36*
X389500D02*
X389122Y227119D01*
X388378Y226622D01*
X387880Y225878D01*
X387805Y225500D01*
X389500D01*
Y227195D01*
D02*
G37*
G36*
X375500D02*
Y225500D01*
X377195D01*
X377119Y225878D01*
X376622Y226622D01*
X375878Y227119D01*
X375500Y227195D01*
D02*
G37*
G36*
X374500D02*
X374122Y227119D01*
X373378Y226622D01*
X372881Y225878D01*
X372805Y225500D01*
X374500D01*
Y227195D01*
D02*
G37*
G36*
X360500D02*
Y225500D01*
X362195D01*
X362120Y225878D01*
X361622Y226622D01*
X360878Y227119D01*
X360500Y227195D01*
D02*
G37*
G36*
X359500D02*
X359122Y227119D01*
X358378Y226622D01*
X357880Y225878D01*
X357805Y225500D01*
X359500D01*
Y227195D01*
D02*
G37*
G36*
X345500D02*
Y225500D01*
X347195D01*
X347119Y225878D01*
X346622Y226622D01*
X345878Y227119D01*
X345500Y227195D01*
D02*
G37*
G36*
X344500D02*
X344122Y227119D01*
X343378Y226622D01*
X342881Y225878D01*
X342805Y225500D01*
X344500D01*
Y227195D01*
D02*
G37*
G36*
X330500D02*
Y225500D01*
X332195D01*
X332119Y225878D01*
X331622Y226622D01*
X330878Y227119D01*
X330500Y227195D01*
D02*
G37*
G36*
X329500D02*
X329122Y227119D01*
X328378Y226622D01*
X327881Y225878D01*
X327805Y225500D01*
X329500D01*
Y227195D01*
D02*
G37*
G36*
X300500D02*
Y225500D01*
X302195D01*
X302119Y225878D01*
X301622Y226622D01*
X300878Y227119D01*
X300500Y227195D01*
D02*
G37*
G36*
X299500D02*
X299122Y227119D01*
X298378Y226622D01*
X297881Y225878D01*
X297805Y225500D01*
X299500D01*
Y227195D01*
D02*
G37*
G36*
X285500D02*
Y225500D01*
X287195D01*
X287120Y225878D01*
X286622Y226622D01*
X285878Y227119D01*
X285500Y227195D01*
D02*
G37*
G36*
X284500D02*
X284122Y227119D01*
X283378Y226622D01*
X282880Y225878D01*
X282805Y225500D01*
X284500D01*
Y227195D01*
D02*
G37*
G36*
X270500D02*
Y225500D01*
X272195D01*
X272119Y225878D01*
X271622Y226622D01*
X270878Y227119D01*
X270500Y227195D01*
D02*
G37*
G36*
X269500D02*
X269122Y227119D01*
X268378Y226622D01*
X267881Y225878D01*
X267805Y225500D01*
X269500D01*
Y227195D01*
D02*
G37*
G36*
X437195Y224500D02*
X435500D01*
Y222805D01*
X435878Y222881D01*
X436622Y223378D01*
X437119Y224122D01*
X437195Y224500D01*
D02*
G37*
G36*
X434500D02*
X432805D01*
X432881Y224122D01*
X433378Y223378D01*
X434122Y222881D01*
X434500Y222805D01*
Y224500D01*
D02*
G37*
G36*
X407195D02*
X405500D01*
Y222805D01*
X405878Y222881D01*
X406622Y223378D01*
X407120Y224122D01*
X407195Y224500D01*
D02*
G37*
G36*
X404500D02*
X402805D01*
X402880Y224122D01*
X403378Y223378D01*
X404122Y222881D01*
X404500Y222805D01*
Y224500D01*
D02*
G37*
G36*
X392195D02*
X390500D01*
Y222805D01*
X390878Y222881D01*
X391622Y223378D01*
X392120Y224122D01*
X392195Y224500D01*
D02*
G37*
G36*
X389500D02*
X387805D01*
X387880Y224122D01*
X388378Y223378D01*
X389122Y222881D01*
X389500Y222805D01*
Y224500D01*
D02*
G37*
G36*
X377195D02*
X375500D01*
Y222805D01*
X375878Y222881D01*
X376622Y223378D01*
X377119Y224122D01*
X377195Y224500D01*
D02*
G37*
G36*
X374500D02*
X372805D01*
X372881Y224122D01*
X373378Y223378D01*
X374122Y222881D01*
X374500Y222805D01*
Y224500D01*
D02*
G37*
G36*
X362195D02*
X360500D01*
Y222805D01*
X360878Y222881D01*
X361622Y223378D01*
X362120Y224122D01*
X362195Y224500D01*
D02*
G37*
G36*
X359500D02*
X357805D01*
X357880Y224122D01*
X358378Y223378D01*
X359122Y222881D01*
X359500Y222805D01*
Y224500D01*
D02*
G37*
G36*
X347195D02*
X345500D01*
Y222805D01*
X345878Y222881D01*
X346622Y223378D01*
X347119Y224122D01*
X347195Y224500D01*
D02*
G37*
G36*
X344500D02*
X342805D01*
X342881Y224122D01*
X343378Y223378D01*
X344122Y222881D01*
X344500Y222805D01*
Y224500D01*
D02*
G37*
G36*
X332195D02*
X330500D01*
Y222805D01*
X330878Y222881D01*
X331622Y223378D01*
X332119Y224122D01*
X332195Y224500D01*
D02*
G37*
G36*
X329500D02*
X327805D01*
X327881Y224122D01*
X328378Y223378D01*
X329122Y222881D01*
X329500Y222805D01*
Y224500D01*
D02*
G37*
G36*
X302195D02*
X300500D01*
Y222805D01*
X300878Y222881D01*
X301622Y223378D01*
X302119Y224122D01*
X302195Y224500D01*
D02*
G37*
G36*
X299500D02*
X297805D01*
X297881Y224122D01*
X298378Y223378D01*
X299122Y222881D01*
X299500Y222805D01*
Y224500D01*
D02*
G37*
G36*
X287195D02*
X285500D01*
Y222805D01*
X285878Y222881D01*
X286622Y223378D01*
X287120Y224122D01*
X287195Y224500D01*
D02*
G37*
G36*
X284500D02*
X282805D01*
X282880Y224122D01*
X283378Y223378D01*
X284122Y222881D01*
X284500Y222805D01*
Y224500D01*
D02*
G37*
G36*
X272195D02*
X270500D01*
Y222805D01*
X270878Y222881D01*
X271622Y223378D01*
X272119Y224122D01*
X272195Y224500D01*
D02*
G37*
G36*
X269500D02*
X267805D01*
X267881Y224122D01*
X268378Y223378D01*
X269122Y222881D01*
X269500Y222805D01*
Y224500D01*
D02*
G37*
G36*
X435500Y212195D02*
Y210500D01*
X437195D01*
X437119Y210878D01*
X436622Y211622D01*
X435878Y212120D01*
X435500Y212195D01*
D02*
G37*
G36*
X434500D02*
X434122Y212120D01*
X433378Y211622D01*
X432881Y210878D01*
X432805Y210500D01*
X434500D01*
Y212195D01*
D02*
G37*
G36*
X420500D02*
Y210500D01*
X422195D01*
X422119Y210878D01*
X421622Y211622D01*
X420878Y212120D01*
X420500Y212195D01*
D02*
G37*
G36*
X419500D02*
X419122Y212120D01*
X418378Y211622D01*
X417881Y210878D01*
X417805Y210500D01*
X419500D01*
Y212195D01*
D02*
G37*
G36*
X405500D02*
Y210500D01*
X407195D01*
X407120Y210878D01*
X406622Y211622D01*
X405878Y212120D01*
X405500Y212195D01*
D02*
G37*
G36*
X404500D02*
X404122Y212120D01*
X403378Y211622D01*
X402880Y210878D01*
X402805Y210500D01*
X404500D01*
Y212195D01*
D02*
G37*
G36*
X390500D02*
Y210500D01*
X392195D01*
X392120Y210878D01*
X391622Y211622D01*
X390878Y212120D01*
X390500Y212195D01*
D02*
G37*
G36*
X389500D02*
X389122Y212120D01*
X388378Y211622D01*
X387880Y210878D01*
X387805Y210500D01*
X389500D01*
Y212195D01*
D02*
G37*
G36*
X375500D02*
Y210500D01*
X377195D01*
X377119Y210878D01*
X376622Y211622D01*
X375878Y212120D01*
X375500Y212195D01*
D02*
G37*
G36*
X374500D02*
X374122Y212120D01*
X373378Y211622D01*
X372881Y210878D01*
X372805Y210500D01*
X374500D01*
Y212195D01*
D02*
G37*
G36*
X360500D02*
Y210500D01*
X362195D01*
X362120Y210878D01*
X361622Y211622D01*
X360878Y212120D01*
X360500Y212195D01*
D02*
G37*
G36*
X359500D02*
X359122Y212120D01*
X358378Y211622D01*
X357880Y210878D01*
X357805Y210500D01*
X359500D01*
Y212195D01*
D02*
G37*
G36*
X345500D02*
Y210500D01*
X347195D01*
X347119Y210878D01*
X346622Y211622D01*
X345878Y212120D01*
X345500Y212195D01*
D02*
G37*
G36*
X344500D02*
X344122Y212120D01*
X343378Y211622D01*
X342881Y210878D01*
X342805Y210500D01*
X344500D01*
Y212195D01*
D02*
G37*
G36*
X315500D02*
Y210500D01*
X317195D01*
X317120Y210878D01*
X316622Y211622D01*
X315878Y212120D01*
X315500Y212195D01*
D02*
G37*
G36*
X314500D02*
X314122Y212120D01*
X313378Y211622D01*
X312880Y210878D01*
X312805Y210500D01*
X314500D01*
Y212195D01*
D02*
G37*
G36*
X300500D02*
Y210500D01*
X302195D01*
X302119Y210878D01*
X301622Y211622D01*
X300878Y212120D01*
X300500Y212195D01*
D02*
G37*
G36*
X299500D02*
X299122Y212120D01*
X298378Y211622D01*
X297881Y210878D01*
X297805Y210500D01*
X299500D01*
Y212195D01*
D02*
G37*
G36*
X285500D02*
Y210500D01*
X287195D01*
X287120Y210878D01*
X286622Y211622D01*
X285878Y212120D01*
X285500Y212195D01*
D02*
G37*
G36*
X284500D02*
X284122Y212120D01*
X283378Y211622D01*
X282880Y210878D01*
X282805Y210500D01*
X284500D01*
Y212195D01*
D02*
G37*
G36*
X270500D02*
Y210500D01*
X272195D01*
X272119Y210878D01*
X271622Y211622D01*
X270878Y212120D01*
X270500Y212195D01*
D02*
G37*
G36*
X269500D02*
X269122Y212120D01*
X268378Y211622D01*
X267881Y210878D01*
X267805Y210500D01*
X269500D01*
Y212195D01*
D02*
G37*
G36*
X437195Y209500D02*
X435500D01*
Y207805D01*
X435878Y207880D01*
X436622Y208378D01*
X437119Y209122D01*
X437195Y209500D01*
D02*
G37*
G36*
X434500D02*
X432805D01*
X432881Y209122D01*
X433378Y208378D01*
X434122Y207880D01*
X434500Y207805D01*
Y209500D01*
D02*
G37*
G36*
X422195D02*
X420500D01*
Y207805D01*
X420878Y207880D01*
X421622Y208378D01*
X422119Y209122D01*
X422195Y209500D01*
D02*
G37*
G36*
X419500D02*
X417805D01*
X417881Y209122D01*
X418378Y208378D01*
X419122Y207880D01*
X419500Y207805D01*
Y209500D01*
D02*
G37*
G36*
X407195D02*
X405500D01*
Y207805D01*
X405878Y207880D01*
X406622Y208378D01*
X407120Y209122D01*
X407195Y209500D01*
D02*
G37*
G36*
X404500D02*
X402805D01*
X402880Y209122D01*
X403378Y208378D01*
X404122Y207880D01*
X404500Y207805D01*
Y209500D01*
D02*
G37*
G36*
X392195D02*
X390500D01*
Y207805D01*
X390878Y207880D01*
X391622Y208378D01*
X392120Y209122D01*
X392195Y209500D01*
D02*
G37*
G36*
X389500D02*
X387805D01*
X387880Y209122D01*
X388378Y208378D01*
X389122Y207880D01*
X389500Y207805D01*
Y209500D01*
D02*
G37*
G36*
X377195D02*
X375500D01*
Y207805D01*
X375878Y207880D01*
X376622Y208378D01*
X377119Y209122D01*
X377195Y209500D01*
D02*
G37*
G36*
X374500D02*
X372805D01*
X372881Y209122D01*
X373378Y208378D01*
X374122Y207880D01*
X374500Y207805D01*
Y209500D01*
D02*
G37*
G36*
X362195D02*
X360500D01*
Y207805D01*
X360878Y207880D01*
X361622Y208378D01*
X362120Y209122D01*
X362195Y209500D01*
D02*
G37*
G36*
X359500D02*
X357805D01*
X357880Y209122D01*
X358378Y208378D01*
X359122Y207880D01*
X359500Y207805D01*
Y209500D01*
D02*
G37*
G36*
X347195D02*
X345500D01*
Y207805D01*
X345878Y207880D01*
X346622Y208378D01*
X347119Y209122D01*
X347195Y209500D01*
D02*
G37*
G36*
X344500D02*
X342805D01*
X342881Y209122D01*
X343378Y208378D01*
X344122Y207880D01*
X344500Y207805D01*
Y209500D01*
D02*
G37*
G36*
X317195D02*
X315500D01*
Y207805D01*
X315878Y207880D01*
X316622Y208378D01*
X317120Y209122D01*
X317195Y209500D01*
D02*
G37*
G36*
X314500D02*
X312805D01*
X312880Y209122D01*
X313378Y208378D01*
X314122Y207880D01*
X314500Y207805D01*
Y209500D01*
D02*
G37*
G36*
X302195D02*
X300500D01*
Y207805D01*
X300878Y207880D01*
X301622Y208378D01*
X302119Y209122D01*
X302195Y209500D01*
D02*
G37*
G36*
X299500D02*
X297805D01*
X297881Y209122D01*
X298378Y208378D01*
X299122Y207880D01*
X299500Y207805D01*
Y209500D01*
D02*
G37*
G36*
X287195D02*
X285500D01*
Y207805D01*
X285878Y207880D01*
X286622Y208378D01*
X287120Y209122D01*
X287195Y209500D01*
D02*
G37*
G36*
X284500D02*
X282805D01*
X282880Y209122D01*
X283378Y208378D01*
X284122Y207880D01*
X284500Y207805D01*
Y209500D01*
D02*
G37*
G36*
X272195D02*
X270500D01*
Y207805D01*
X270878Y207880D01*
X271622Y208378D01*
X272119Y209122D01*
X272195Y209500D01*
D02*
G37*
G36*
X269500D02*
X267805D01*
X267881Y209122D01*
X268378Y208378D01*
X269122Y207880D01*
X269500Y207805D01*
Y209500D01*
D02*
G37*
G36*
X435500Y197195D02*
Y195500D01*
X437195D01*
X437119Y195878D01*
X436622Y196622D01*
X435878Y197119D01*
X435500Y197195D01*
D02*
G37*
G36*
X434500D02*
X434122Y197119D01*
X433378Y196622D01*
X432881Y195878D01*
X432805Y195500D01*
X434500D01*
Y197195D01*
D02*
G37*
G36*
X420500D02*
Y195500D01*
X422195D01*
X422119Y195878D01*
X421622Y196622D01*
X420878Y197119D01*
X420500Y197195D01*
D02*
G37*
G36*
X419500D02*
X419122Y197119D01*
X418378Y196622D01*
X417881Y195878D01*
X417805Y195500D01*
X419500D01*
Y197195D01*
D02*
G37*
G36*
X405500D02*
Y195500D01*
X407195D01*
X407120Y195878D01*
X406622Y196622D01*
X405878Y197119D01*
X405500Y197195D01*
D02*
G37*
G36*
X404500D02*
X404122Y197119D01*
X403378Y196622D01*
X402880Y195878D01*
X402805Y195500D01*
X404500D01*
Y197195D01*
D02*
G37*
G36*
X390500D02*
Y195500D01*
X392195D01*
X392120Y195878D01*
X391622Y196622D01*
X390878Y197119D01*
X390500Y197195D01*
D02*
G37*
G36*
X389500D02*
X389122Y197119D01*
X388378Y196622D01*
X387880Y195878D01*
X387805Y195500D01*
X389500D01*
Y197195D01*
D02*
G37*
G36*
X375500D02*
Y195500D01*
X377195D01*
X377119Y195878D01*
X376622Y196622D01*
X375878Y197119D01*
X375500Y197195D01*
D02*
G37*
G36*
X374500D02*
X374122Y197119D01*
X373378Y196622D01*
X372881Y195878D01*
X372805Y195500D01*
X374500D01*
Y197195D01*
D02*
G37*
G36*
X360500D02*
Y195500D01*
X362195D01*
X362120Y195878D01*
X361622Y196622D01*
X360878Y197119D01*
X360500Y197195D01*
D02*
G37*
G36*
X359500D02*
X359122Y197119D01*
X358378Y196622D01*
X357880Y195878D01*
X357805Y195500D01*
X359500D01*
Y197195D01*
D02*
G37*
G36*
X345500D02*
Y195500D01*
X347195D01*
X347119Y195878D01*
X346622Y196622D01*
X345878Y197119D01*
X345500Y197195D01*
D02*
G37*
G36*
X344500D02*
X344122Y197119D01*
X343378Y196622D01*
X342881Y195878D01*
X342805Y195500D01*
X344500D01*
Y197195D01*
D02*
G37*
G36*
X330500D02*
Y195500D01*
X332195D01*
X332119Y195878D01*
X331622Y196622D01*
X330878Y197119D01*
X330500Y197195D01*
D02*
G37*
G36*
X329500D02*
X329122Y197119D01*
X328378Y196622D01*
X327881Y195878D01*
X327805Y195500D01*
X329500D01*
Y197195D01*
D02*
G37*
G36*
X315500D02*
Y195500D01*
X317195D01*
X317120Y195878D01*
X316622Y196622D01*
X315878Y197119D01*
X315500Y197195D01*
D02*
G37*
G36*
X314500D02*
X314122Y197119D01*
X313378Y196622D01*
X312880Y195878D01*
X312805Y195500D01*
X314500D01*
Y197195D01*
D02*
G37*
G36*
X300500D02*
Y195500D01*
X302195D01*
X302119Y195878D01*
X301622Y196622D01*
X300878Y197119D01*
X300500Y197195D01*
D02*
G37*
G36*
X299500D02*
X299122Y197119D01*
X298378Y196622D01*
X297881Y195878D01*
X297805Y195500D01*
X299500D01*
Y197195D01*
D02*
G37*
G36*
X285500D02*
Y195500D01*
X287195D01*
X287120Y195878D01*
X286622Y196622D01*
X285878Y197119D01*
X285500Y197195D01*
D02*
G37*
G36*
X284500D02*
X284122Y197119D01*
X283378Y196622D01*
X282880Y195878D01*
X282805Y195500D01*
X284500D01*
Y197195D01*
D02*
G37*
G36*
X270500D02*
Y195500D01*
X272195D01*
X272119Y195878D01*
X271622Y196622D01*
X270878Y197119D01*
X270500Y197195D01*
D02*
G37*
G36*
X269500D02*
X269122Y197119D01*
X268378Y196622D01*
X267881Y195878D01*
X267805Y195500D01*
X269500D01*
Y197195D01*
D02*
G37*
G36*
X437195Y194500D02*
X435500D01*
Y192805D01*
X435878Y192880D01*
X436622Y193378D01*
X437119Y194122D01*
X437195Y194500D01*
D02*
G37*
G36*
X434500D02*
X432805D01*
X432881Y194122D01*
X433378Y193378D01*
X434122Y192880D01*
X434500Y192805D01*
Y194500D01*
D02*
G37*
G36*
X422195D02*
X420500D01*
Y192805D01*
X420878Y192880D01*
X421622Y193378D01*
X422119Y194122D01*
X422195Y194500D01*
D02*
G37*
G36*
X419500D02*
X417805D01*
X417881Y194122D01*
X418378Y193378D01*
X419122Y192880D01*
X419500Y192805D01*
Y194500D01*
D02*
G37*
G36*
X407195D02*
X405500D01*
Y192805D01*
X405878Y192880D01*
X406622Y193378D01*
X407120Y194122D01*
X407195Y194500D01*
D02*
G37*
G36*
X404500D02*
X402805D01*
X402880Y194122D01*
X403378Y193378D01*
X404122Y192880D01*
X404500Y192805D01*
Y194500D01*
D02*
G37*
G36*
X392195D02*
X390500D01*
Y192805D01*
X390878Y192880D01*
X391622Y193378D01*
X392120Y194122D01*
X392195Y194500D01*
D02*
G37*
G36*
X389500D02*
X387805D01*
X387880Y194122D01*
X388378Y193378D01*
X389122Y192880D01*
X389500Y192805D01*
Y194500D01*
D02*
G37*
G36*
X377195D02*
X375500D01*
Y192805D01*
X375878Y192880D01*
X376622Y193378D01*
X377119Y194122D01*
X377195Y194500D01*
D02*
G37*
G36*
X374500D02*
X372805D01*
X372881Y194122D01*
X373378Y193378D01*
X374122Y192880D01*
X374500Y192805D01*
Y194500D01*
D02*
G37*
G36*
X362195D02*
X360500D01*
Y192805D01*
X360878Y192880D01*
X361622Y193378D01*
X362120Y194122D01*
X362195Y194500D01*
D02*
G37*
G36*
X359500D02*
X357805D01*
X357880Y194122D01*
X358378Y193378D01*
X359122Y192880D01*
X359500Y192805D01*
Y194500D01*
D02*
G37*
G36*
X347195D02*
X345500D01*
Y192805D01*
X345878Y192880D01*
X346622Y193378D01*
X347119Y194122D01*
X347195Y194500D01*
D02*
G37*
G36*
X344500D02*
X342805D01*
X342881Y194122D01*
X343378Y193378D01*
X344122Y192880D01*
X344500Y192805D01*
Y194500D01*
D02*
G37*
G36*
X332195D02*
X330500D01*
Y192805D01*
X330878Y192880D01*
X331622Y193378D01*
X332119Y194122D01*
X332195Y194500D01*
D02*
G37*
G36*
X329500D02*
X327805D01*
X327881Y194122D01*
X328378Y193378D01*
X329122Y192880D01*
X329500Y192805D01*
Y194500D01*
D02*
G37*
G36*
X317195D02*
X315500D01*
Y192805D01*
X315878Y192880D01*
X316622Y193378D01*
X317120Y194122D01*
X317195Y194500D01*
D02*
G37*
G36*
X314500D02*
X312805D01*
X312880Y194122D01*
X313378Y193378D01*
X314122Y192880D01*
X314500Y192805D01*
Y194500D01*
D02*
G37*
G36*
X302195D02*
X300500D01*
Y192805D01*
X300878Y192880D01*
X301622Y193378D01*
X302119Y194122D01*
X302195Y194500D01*
D02*
G37*
G36*
X299500D02*
X297805D01*
X297881Y194122D01*
X298378Y193378D01*
X299122Y192880D01*
X299500Y192805D01*
Y194500D01*
D02*
G37*
G36*
X287195D02*
X285500D01*
Y192805D01*
X285878Y192880D01*
X286622Y193378D01*
X287120Y194122D01*
X287195Y194500D01*
D02*
G37*
G36*
X284500D02*
X282805D01*
X282880Y194122D01*
X283378Y193378D01*
X284122Y192880D01*
X284500Y192805D01*
Y194500D01*
D02*
G37*
G36*
X272195D02*
X270500D01*
Y192805D01*
X270878Y192880D01*
X271622Y193378D01*
X272119Y194122D01*
X272195Y194500D01*
D02*
G37*
G36*
X269500D02*
X267805D01*
X267881Y194122D01*
X268378Y193378D01*
X269122Y192880D01*
X269500Y192805D01*
Y194500D01*
D02*
G37*
%LPD*%
D13*
X287500Y306500D02*
X289500Y304500D01*
D36*
X287500Y316500D02*
D03*
Y306500D02*
D03*
Y296500D02*
D03*
Y286500D02*
D03*
Y266500D02*
D03*
Y276500D02*
D03*
D37*
Y256500D02*
D03*
D38*
X435000Y330000D02*
D03*
Y270000D02*
D03*
Y240000D02*
D03*
Y225000D02*
D03*
Y210000D02*
D03*
Y195000D02*
D03*
X420000Y300000D02*
D03*
Y210000D02*
D03*
Y195000D02*
D03*
X405000Y315000D02*
D03*
Y300000D02*
D03*
Y225000D02*
D03*
Y210000D02*
D03*
Y195000D02*
D03*
X390000Y315000D02*
D03*
Y300000D02*
D03*
Y270000D02*
D03*
Y255000D02*
D03*
Y240000D02*
D03*
Y225000D02*
D03*
Y210000D02*
D03*
Y195000D02*
D03*
X375000Y315000D02*
D03*
Y300000D02*
D03*
Y270000D02*
D03*
Y255000D02*
D03*
Y240000D02*
D03*
Y225000D02*
D03*
Y210000D02*
D03*
Y195000D02*
D03*
X360000Y315000D02*
D03*
Y300000D02*
D03*
Y225000D02*
D03*
Y210000D02*
D03*
Y195000D02*
D03*
X345000Y315000D02*
D03*
Y300000D02*
D03*
Y225000D02*
D03*
Y210000D02*
D03*
Y195000D02*
D03*
X330000Y315000D02*
D03*
Y225000D02*
D03*
Y195000D02*
D03*
X315000Y270000D02*
D03*
Y210000D02*
D03*
Y195000D02*
D03*
X300000Y315000D02*
D03*
Y240000D02*
D03*
Y225000D02*
D03*
Y210000D02*
D03*
Y195000D02*
D03*
X285000Y240000D02*
D03*
Y225000D02*
D03*
Y210000D02*
D03*
Y195000D02*
D03*
X270000Y285000D02*
D03*
Y270000D02*
D03*
Y255000D02*
D03*
Y240000D02*
D03*
Y225000D02*
D03*
Y210000D02*
D03*
Y195000D02*
D03*
D39*
X246063Y354331D02*
D03*
X462598D02*
D03*
Y177165D02*
D03*
X246063D02*
D03*
M02*
