G04*
G04 #@! TF.GenerationSoftware,Altium Limited,Altium Designer,18.0.12 (696)*
G04*
G04 Layer_Color=16711935*
%FSLAX25Y25*%
%MOIN*%
G70*
G01*
G75*
%ADD22C,0.06706*%
%ADD23R,0.06706X0.06706*%
%ADD24C,0.03300*%
%ADD25C,0.14186*%
D22*
X287500Y316500D02*
D03*
Y306500D02*
D03*
Y296500D02*
D03*
Y286500D02*
D03*
Y266500D02*
D03*
Y276500D02*
D03*
D23*
Y256500D02*
D03*
D24*
X435000Y330000D02*
D03*
Y270000D02*
D03*
Y240000D02*
D03*
Y225000D02*
D03*
Y210000D02*
D03*
Y195000D02*
D03*
X420000Y300000D02*
D03*
Y210000D02*
D03*
Y195000D02*
D03*
X405000Y315000D02*
D03*
Y300000D02*
D03*
Y225000D02*
D03*
Y210000D02*
D03*
Y195000D02*
D03*
X390000Y315000D02*
D03*
Y300000D02*
D03*
Y270000D02*
D03*
Y255000D02*
D03*
Y240000D02*
D03*
Y225000D02*
D03*
Y210000D02*
D03*
Y195000D02*
D03*
X375000Y315000D02*
D03*
Y300000D02*
D03*
Y270000D02*
D03*
Y255000D02*
D03*
Y240000D02*
D03*
Y225000D02*
D03*
Y210000D02*
D03*
Y195000D02*
D03*
X360000Y315000D02*
D03*
Y300000D02*
D03*
Y225000D02*
D03*
Y210000D02*
D03*
Y195000D02*
D03*
X345000Y315000D02*
D03*
Y300000D02*
D03*
Y225000D02*
D03*
Y210000D02*
D03*
Y195000D02*
D03*
X330000Y315000D02*
D03*
Y225000D02*
D03*
Y195000D02*
D03*
X315000Y270000D02*
D03*
Y210000D02*
D03*
Y195000D02*
D03*
X300000Y315000D02*
D03*
Y240000D02*
D03*
Y225000D02*
D03*
Y210000D02*
D03*
Y195000D02*
D03*
X285000Y240000D02*
D03*
Y225000D02*
D03*
Y210000D02*
D03*
Y195000D02*
D03*
X270000Y285000D02*
D03*
Y270000D02*
D03*
Y255000D02*
D03*
Y240000D02*
D03*
Y225000D02*
D03*
Y210000D02*
D03*
Y195000D02*
D03*
D25*
X246063Y354331D02*
D03*
X462598D02*
D03*
Y177165D02*
D03*
X246063D02*
D03*
M02*
