G04*
G04 #@! TF.GenerationSoftware,Altium Limited,Altium Designer,18.1.6 (161)*
G04*
G04 Layer_Color=8388736*
%FSLAX25Y25*%
%MOIN*%
G70*
G01*
G75*
%ADD15R,0.06115X0.03753*%
%ADD16R,0.03600X0.03800*%
%ADD17R,0.03950X0.09068*%
G04:AMPARAMS|DCode=18|XSize=90.68mil|YSize=39.5mil|CornerRadius=11.87mil|HoleSize=0mil|Usage=FLASHONLY|Rotation=270.000|XOffset=0mil|YOffset=0mil|HoleType=Round|Shape=RoundedRectangle|*
%AMROUNDEDRECTD18*
21,1,0.09068,0.01575,0,0,270.0*
21,1,0.06693,0.03950,0,0,270.0*
1,1,0.02375,-0.00787,-0.03347*
1,1,0.02375,-0.00787,0.03347*
1,1,0.02375,0.00787,0.03347*
1,1,0.02375,0.00787,-0.03347*
%
%ADD18ROUNDEDRECTD18*%
%ADD19R,0.03800X0.03600*%
%ADD20R,0.05131X0.02375*%
%ADD21R,0.05131X0.02729*%
%ADD22C,0.06706*%
%ADD23R,0.06706X0.06706*%
%ADD24C,0.03300*%
%ADD25C,0.14186*%
D15*
X303150Y216535D02*
D03*
X287402D02*
D03*
D16*
X268937D02*
D03*
X262559D02*
D03*
X426811Y282500D02*
D03*
X433189D02*
D03*
X426189Y266000D02*
D03*
X419811D02*
D03*
X424689Y245986D02*
D03*
X418311D02*
D03*
X424689Y235986D02*
D03*
X418311D02*
D03*
X424189Y223986D02*
D03*
X417811D02*
D03*
D17*
X333500Y238630D02*
D03*
X324500Y280130D02*
D03*
D18*
X333500Y215795D02*
D03*
X324500Y257295D02*
D03*
D19*
X301000Y265122D02*
D03*
Y271500D02*
D03*
X351486Y219311D02*
D03*
Y225689D02*
D03*
X353000Y281311D02*
D03*
Y287689D02*
D03*
D20*
X363843Y281000D02*
D03*
Y275803D02*
D03*
Y270803D02*
D03*
Y265803D02*
D03*
Y260803D02*
D03*
Y255803D02*
D03*
Y250803D02*
D03*
Y245803D02*
D03*
Y240803D02*
D03*
Y235803D02*
D03*
D21*
X404000Y281000D02*
D03*
Y276000D02*
D03*
Y271000D02*
D03*
Y266000D02*
D03*
Y261000D02*
D03*
Y256000D02*
D03*
Y251000D02*
D03*
Y246000D02*
D03*
Y241000D02*
D03*
Y236000D02*
D03*
D22*
X287500Y316500D02*
D03*
Y306500D02*
D03*
Y296500D02*
D03*
Y286500D02*
D03*
Y266500D02*
D03*
Y276500D02*
D03*
D23*
Y256500D02*
D03*
D24*
X435000Y330000D02*
D03*
Y270000D02*
D03*
Y240000D02*
D03*
Y225000D02*
D03*
Y210000D02*
D03*
Y195000D02*
D03*
X420000Y300000D02*
D03*
Y210000D02*
D03*
Y195000D02*
D03*
X405000Y315000D02*
D03*
Y300000D02*
D03*
Y225000D02*
D03*
Y210000D02*
D03*
Y195000D02*
D03*
X390000Y315000D02*
D03*
Y300000D02*
D03*
Y270000D02*
D03*
Y255000D02*
D03*
Y240000D02*
D03*
Y225000D02*
D03*
Y210000D02*
D03*
Y195000D02*
D03*
X375000Y315000D02*
D03*
Y300000D02*
D03*
Y270000D02*
D03*
Y255000D02*
D03*
Y240000D02*
D03*
Y225000D02*
D03*
Y210000D02*
D03*
Y195000D02*
D03*
X360000Y315000D02*
D03*
Y300000D02*
D03*
Y225000D02*
D03*
Y210000D02*
D03*
Y195000D02*
D03*
X345000Y315000D02*
D03*
Y300000D02*
D03*
Y225000D02*
D03*
Y210000D02*
D03*
Y195000D02*
D03*
X330000Y315000D02*
D03*
Y225000D02*
D03*
Y195000D02*
D03*
X315000Y270000D02*
D03*
Y210000D02*
D03*
Y195000D02*
D03*
X300000Y315000D02*
D03*
Y240000D02*
D03*
Y225000D02*
D03*
Y210000D02*
D03*
Y195000D02*
D03*
X285000Y240000D02*
D03*
Y225000D02*
D03*
Y210000D02*
D03*
Y195000D02*
D03*
X270000Y285000D02*
D03*
Y270000D02*
D03*
Y255000D02*
D03*
Y240000D02*
D03*
Y225000D02*
D03*
Y210000D02*
D03*
Y195000D02*
D03*
D25*
X246063Y354331D02*
D03*
X462598D02*
D03*
Y177165D02*
D03*
X246063D02*
D03*
M02*
