G04*
G04 #@! TF.GenerationSoftware,Altium Limited,Altium Designer,18.1.6 (161)*
G04*
G04 Layer_Color=16711935*
%FSLAX25Y25*%
%MOIN*%
G70*
G01*
G75*
%ADD18R,0.03800X0.03600*%
%ADD30C,0.12611*%
%ADD31C,0.06706*%
%ADD32R,0.06706X0.06706*%
%ADD33C,0.03300*%
%ADD34C,0.14186*%
%ADD35C,0.10249*%
%ADD36C,0.05800*%
G04:AMPARAMS|DCode=66|XSize=25.72mil|YSize=70.99mil|CornerRadius=5.95mil|HoleSize=0mil|Usage=FLASHONLY|Rotation=270.000|XOffset=0mil|YOffset=0mil|HoleType=Round|Shape=RoundedRectangle|*
%AMROUNDEDRECTD66*
21,1,0.02572,0.05909,0,0,270.0*
21,1,0.01382,0.07099,0,0,270.0*
1,1,0.01190,-0.02955,-0.00691*
1,1,0.01190,-0.02955,0.00691*
1,1,0.01190,0.02955,0.00691*
1,1,0.01190,0.02955,-0.00691*
%
%ADD66ROUNDEDRECTD66*%
%ADD67R,0.07887X0.11430*%
%ADD68R,0.05131X0.09068*%
D18*
X1288568Y1221693D02*
D03*
Y1215315D02*
D03*
X1286220Y1388976D02*
D03*
Y1395354D02*
D03*
D30*
X1361024Y1169685D02*
D03*
Y1150000D02*
D03*
D31*
X1265569Y800579D02*
D03*
X1275569D02*
D03*
X1203819Y770748D02*
D03*
X1185709D02*
D03*
X1200000Y1153622D02*
D03*
Y1143622D02*
D03*
Y1133622D02*
D03*
Y1123622D02*
D03*
D32*
X1203819Y760748D02*
D03*
X1185709D02*
D03*
X1200000Y1113622D02*
D03*
D33*
X1380000Y1500000D02*
D03*
Y1485000D02*
D03*
Y1470000D02*
D03*
Y1455000D02*
D03*
Y1440000D02*
D03*
Y1425000D02*
D03*
Y1410000D02*
D03*
Y1395000D02*
D03*
Y1380000D02*
D03*
Y1365000D02*
D03*
Y1350000D02*
D03*
Y1335000D02*
D03*
Y1320000D02*
D03*
Y1245000D02*
D03*
Y1230000D02*
D03*
Y1215000D02*
D03*
Y1200000D02*
D03*
Y1185000D02*
D03*
Y1170000D02*
D03*
Y1155000D02*
D03*
Y1140000D02*
D03*
Y1065000D02*
D03*
Y1050000D02*
D03*
Y1035000D02*
D03*
Y1020000D02*
D03*
Y1005000D02*
D03*
Y990000D02*
D03*
Y975000D02*
D03*
Y960000D02*
D03*
Y885000D02*
D03*
Y870000D02*
D03*
Y855000D02*
D03*
Y840000D02*
D03*
Y825000D02*
D03*
Y810000D02*
D03*
Y795000D02*
D03*
Y780000D02*
D03*
Y765000D02*
D03*
Y750000D02*
D03*
Y735000D02*
D03*
Y720000D02*
D03*
Y705000D02*
D03*
Y690000D02*
D03*
X1365000Y1500000D02*
D03*
Y1485000D02*
D03*
Y1470000D02*
D03*
Y1455000D02*
D03*
Y1440000D02*
D03*
Y1425000D02*
D03*
Y1410000D02*
D03*
Y1395000D02*
D03*
Y1380000D02*
D03*
Y1365000D02*
D03*
Y1350000D02*
D03*
Y1335000D02*
D03*
Y1320000D02*
D03*
Y1305000D02*
D03*
Y1290000D02*
D03*
Y1275000D02*
D03*
Y1260000D02*
D03*
Y1245000D02*
D03*
Y1230000D02*
D03*
Y1215000D02*
D03*
Y1200000D02*
D03*
Y1185000D02*
D03*
Y1140000D02*
D03*
Y1125000D02*
D03*
Y1110000D02*
D03*
Y1095000D02*
D03*
Y840000D02*
D03*
Y825000D02*
D03*
Y810000D02*
D03*
Y795000D02*
D03*
Y780000D02*
D03*
Y765000D02*
D03*
Y750000D02*
D03*
Y735000D02*
D03*
Y720000D02*
D03*
Y705000D02*
D03*
Y690000D02*
D03*
X1350000Y1500000D02*
D03*
Y1485000D02*
D03*
Y1470000D02*
D03*
Y1455000D02*
D03*
Y1440000D02*
D03*
Y1425000D02*
D03*
Y1410000D02*
D03*
Y1395000D02*
D03*
Y1380000D02*
D03*
Y1365000D02*
D03*
Y1350000D02*
D03*
Y1335000D02*
D03*
Y1320000D02*
D03*
Y1305000D02*
D03*
Y1290000D02*
D03*
Y1275000D02*
D03*
Y1260000D02*
D03*
Y1245000D02*
D03*
Y1230000D02*
D03*
Y1215000D02*
D03*
Y1200000D02*
D03*
Y1185000D02*
D03*
Y1170000D02*
D03*
Y1140000D02*
D03*
Y1125000D02*
D03*
Y1110000D02*
D03*
Y1080000D02*
D03*
Y1050000D02*
D03*
Y915000D02*
D03*
Y900000D02*
D03*
Y870000D02*
D03*
Y825000D02*
D03*
Y810000D02*
D03*
Y795000D02*
D03*
Y780000D02*
D03*
Y765000D02*
D03*
Y750000D02*
D03*
Y735000D02*
D03*
Y720000D02*
D03*
Y705000D02*
D03*
Y690000D02*
D03*
X1335000Y1500000D02*
D03*
Y1485000D02*
D03*
Y1470000D02*
D03*
Y1455000D02*
D03*
Y1440000D02*
D03*
Y1425000D02*
D03*
Y1410000D02*
D03*
Y1395000D02*
D03*
Y1380000D02*
D03*
Y1365000D02*
D03*
Y1350000D02*
D03*
Y1335000D02*
D03*
Y1320000D02*
D03*
Y1305000D02*
D03*
Y1290000D02*
D03*
Y1275000D02*
D03*
Y1260000D02*
D03*
Y1245000D02*
D03*
Y1230000D02*
D03*
Y1215000D02*
D03*
Y1200000D02*
D03*
Y1185000D02*
D03*
Y1140000D02*
D03*
Y915000D02*
D03*
Y885000D02*
D03*
Y855000D02*
D03*
Y810000D02*
D03*
Y795000D02*
D03*
Y780000D02*
D03*
Y765000D02*
D03*
Y750000D02*
D03*
Y735000D02*
D03*
Y720000D02*
D03*
Y705000D02*
D03*
Y690000D02*
D03*
X1320000Y1500000D02*
D03*
Y1485000D02*
D03*
Y1470000D02*
D03*
Y1455000D02*
D03*
Y1440000D02*
D03*
Y1425000D02*
D03*
Y1410000D02*
D03*
Y1395000D02*
D03*
Y1380000D02*
D03*
Y1365000D02*
D03*
Y1350000D02*
D03*
Y1335000D02*
D03*
Y945000D02*
D03*
Y885000D02*
D03*
Y870000D02*
D03*
Y840000D02*
D03*
Y750000D02*
D03*
Y735000D02*
D03*
Y720000D02*
D03*
X1305000Y1500000D02*
D03*
Y1485000D02*
D03*
Y1470000D02*
D03*
Y1380000D02*
D03*
Y1365000D02*
D03*
Y1350000D02*
D03*
Y1320000D02*
D03*
Y1185000D02*
D03*
Y1170000D02*
D03*
Y960000D02*
D03*
Y870000D02*
D03*
Y855000D02*
D03*
Y780000D02*
D03*
Y765000D02*
D03*
Y735000D02*
D03*
Y705000D02*
D03*
X1290000Y1020000D02*
D03*
Y1005000D02*
D03*
Y990000D02*
D03*
Y975000D02*
D03*
Y855000D02*
D03*
Y840000D02*
D03*
Y825000D02*
D03*
Y780000D02*
D03*
X1275000Y1500000D02*
D03*
Y1485000D02*
D03*
Y1470000D02*
D03*
Y1455000D02*
D03*
Y1440000D02*
D03*
Y1425000D02*
D03*
Y1410000D02*
D03*
Y1200000D02*
D03*
Y1005000D02*
D03*
Y990000D02*
D03*
Y975000D02*
D03*
Y930000D02*
D03*
Y915000D02*
D03*
Y900000D02*
D03*
Y885000D02*
D03*
Y870000D02*
D03*
Y840000D02*
D03*
Y825000D02*
D03*
Y810000D02*
D03*
Y780000D02*
D03*
Y735000D02*
D03*
Y720000D02*
D03*
Y705000D02*
D03*
Y690000D02*
D03*
X1260000Y1005000D02*
D03*
Y990000D02*
D03*
Y975000D02*
D03*
Y930000D02*
D03*
Y915000D02*
D03*
Y900000D02*
D03*
Y870000D02*
D03*
Y855000D02*
D03*
Y825000D02*
D03*
Y810000D02*
D03*
Y795000D02*
D03*
Y780000D02*
D03*
Y750000D02*
D03*
Y735000D02*
D03*
Y720000D02*
D03*
Y705000D02*
D03*
Y690000D02*
D03*
X1245000Y1485000D02*
D03*
Y1470000D02*
D03*
Y1230000D02*
D03*
Y1050000D02*
D03*
Y930000D02*
D03*
Y915000D02*
D03*
Y900000D02*
D03*
Y870000D02*
D03*
Y855000D02*
D03*
Y840000D02*
D03*
X1230000Y1500000D02*
D03*
Y1485000D02*
D03*
Y1080000D02*
D03*
Y945000D02*
D03*
Y930000D02*
D03*
Y915000D02*
D03*
Y900000D02*
D03*
Y870000D02*
D03*
Y855000D02*
D03*
Y840000D02*
D03*
Y825000D02*
D03*
Y810000D02*
D03*
Y795000D02*
D03*
Y765000D02*
D03*
Y750000D02*
D03*
Y735000D02*
D03*
Y720000D02*
D03*
Y690000D02*
D03*
X1215000Y1500000D02*
D03*
Y1485000D02*
D03*
Y1470000D02*
D03*
Y1200000D02*
D03*
Y1185000D02*
D03*
Y1170000D02*
D03*
Y1155000D02*
D03*
Y1035000D02*
D03*
Y780000D02*
D03*
Y765000D02*
D03*
Y750000D02*
D03*
Y735000D02*
D03*
Y705000D02*
D03*
Y690000D02*
D03*
X1200000Y1500000D02*
D03*
Y1485000D02*
D03*
Y1470000D02*
D03*
Y1455000D02*
D03*
Y1215000D02*
D03*
Y1200000D02*
D03*
Y1185000D02*
D03*
Y1170000D02*
D03*
Y1095000D02*
D03*
Y1080000D02*
D03*
Y1005000D02*
D03*
Y930000D02*
D03*
Y915000D02*
D03*
Y900000D02*
D03*
Y885000D02*
D03*
Y870000D02*
D03*
Y720000D02*
D03*
Y705000D02*
D03*
Y690000D02*
D03*
X1185000Y1500000D02*
D03*
Y1485000D02*
D03*
Y1470000D02*
D03*
Y1455000D02*
D03*
Y1440000D02*
D03*
Y1425000D02*
D03*
Y1410000D02*
D03*
Y1395000D02*
D03*
Y1380000D02*
D03*
Y1365000D02*
D03*
Y1350000D02*
D03*
Y1335000D02*
D03*
Y1320000D02*
D03*
Y1305000D02*
D03*
Y1290000D02*
D03*
Y1275000D02*
D03*
Y1260000D02*
D03*
Y1245000D02*
D03*
Y1230000D02*
D03*
Y1215000D02*
D03*
Y1200000D02*
D03*
Y1185000D02*
D03*
Y1170000D02*
D03*
Y1035000D02*
D03*
Y1020000D02*
D03*
Y1005000D02*
D03*
Y990000D02*
D03*
Y930000D02*
D03*
Y915000D02*
D03*
Y900000D02*
D03*
Y885000D02*
D03*
Y870000D02*
D03*
Y735000D02*
D03*
Y720000D02*
D03*
Y705000D02*
D03*
Y690000D02*
D03*
X1170000Y1500000D02*
D03*
Y1485000D02*
D03*
Y1470000D02*
D03*
Y1455000D02*
D03*
Y1440000D02*
D03*
Y1425000D02*
D03*
Y1410000D02*
D03*
Y1395000D02*
D03*
Y1380000D02*
D03*
Y1365000D02*
D03*
Y1350000D02*
D03*
Y1335000D02*
D03*
Y1320000D02*
D03*
Y1245000D02*
D03*
Y1230000D02*
D03*
Y1215000D02*
D03*
Y1200000D02*
D03*
Y1185000D02*
D03*
Y1170000D02*
D03*
Y1155000D02*
D03*
Y1140000D02*
D03*
Y1065000D02*
D03*
Y1050000D02*
D03*
Y1035000D02*
D03*
Y1020000D02*
D03*
Y1005000D02*
D03*
Y990000D02*
D03*
Y975000D02*
D03*
Y960000D02*
D03*
Y885000D02*
D03*
Y870000D02*
D03*
Y855000D02*
D03*
Y840000D02*
D03*
Y825000D02*
D03*
Y810000D02*
D03*
Y795000D02*
D03*
Y780000D02*
D03*
Y765000D02*
D03*
Y750000D02*
D03*
Y735000D02*
D03*
Y720000D02*
D03*
Y705000D02*
D03*
Y690000D02*
D03*
D34*
X1379528Y1125394D02*
D03*
Y1078150D02*
D03*
Y1101772D02*
D03*
X1169291Y1102953D02*
D03*
Y1079331D02*
D03*
Y1126575D02*
D03*
X1379528Y898228D02*
D03*
Y945472D02*
D03*
Y1284055D02*
D03*
X1169291Y921850D02*
D03*
Y898228D02*
D03*
Y945472D02*
D03*
X1379528Y1260433D02*
D03*
Y1307677D02*
D03*
X1169291D02*
D03*
Y1260433D02*
D03*
Y1284055D02*
D03*
X1379528Y921850D02*
D03*
D35*
X1339370Y1159842D02*
D03*
X1338976Y1174409D02*
D03*
D36*
X1207087Y1040945D02*
D03*
X1348032Y1042126D02*
D03*
X1225197Y1381890D02*
D03*
Y1371260D02*
D03*
X1228740Y1348425D02*
D03*
X1234646Y1019291D02*
D03*
X1224409Y961417D02*
D03*
X1357480Y901575D02*
D03*
X1199213Y1231890D02*
D03*
X1308661Y1005512D02*
D03*
X1306693Y998425D02*
D03*
X1247638Y1276378D02*
D03*
X1340158Y891732D02*
D03*
X1211811Y1027559D02*
D03*
X1257874Y1020472D02*
D03*
X1212992Y1057087D02*
D03*
Y1081496D02*
D03*
X1277165Y959055D02*
D03*
X1224803Y1000000D02*
D03*
X1290551Y947638D02*
D03*
X1305512Y940158D02*
D03*
X1319685Y1150000D02*
D03*
X1311811Y699213D02*
D03*
X1258268Y1044094D02*
D03*
X1265748Y1033071D02*
D03*
X1320079Y694488D02*
D03*
X1310236Y905512D02*
D03*
X1242913Y1288976D02*
D03*
X1237402Y1302331D02*
D03*
X1355512Y1026221D02*
D03*
Y1016220D02*
D03*
Y1006221D02*
D03*
Y996220D02*
D03*
Y986220D02*
D03*
Y976221D02*
D03*
Y966220D02*
D03*
Y956221D02*
D03*
X1227953Y1362992D02*
D03*
X1224803Y1391339D02*
D03*
Y1399606D02*
D03*
X1235827Y1314961D02*
D03*
X1231039Y1336220D02*
D03*
X1224803Y1408661D02*
D03*
X1229921Y1438583D02*
D03*
X1233858Y1325591D02*
D03*
X1230315Y1447244D02*
D03*
Y1456693D02*
D03*
X1229921Y1468110D02*
D03*
X1309842Y1413780D02*
D03*
X1294094Y1348425D02*
D03*
X1293898Y1500197D02*
D03*
X1299606Y1478740D02*
D03*
X1305315Y1457283D02*
D03*
X1310236Y1435827D02*
D03*
X1299606Y1370472D02*
D03*
X1304724Y1391732D02*
D03*
X1310236Y1240551D02*
D03*
X1305118Y1218110D02*
D03*
X1300000Y1196850D02*
D03*
X1310630Y1262205D02*
D03*
X1305709Y1283661D02*
D03*
X1300000Y1305118D02*
D03*
X1294291Y1326575D02*
D03*
X1294488Y1175591D02*
D03*
D66*
X1286772Y1428555D02*
D03*
Y1425996D02*
D03*
Y1423437D02*
D03*
Y1420878D02*
D03*
Y1418319D02*
D03*
Y1415760D02*
D03*
Y1413201D02*
D03*
Y1410642D02*
D03*
Y1408083D02*
D03*
Y1405524D02*
D03*
X1262756Y1428555D02*
D03*
Y1425996D02*
D03*
Y1423437D02*
D03*
Y1420878D02*
D03*
Y1418319D02*
D03*
Y1415760D02*
D03*
Y1413201D02*
D03*
Y1410642D02*
D03*
Y1408083D02*
D03*
Y1405524D02*
D03*
X1286972Y1255268D02*
D03*
Y1252709D02*
D03*
Y1250150D02*
D03*
Y1247591D02*
D03*
Y1245032D02*
D03*
Y1242472D02*
D03*
Y1239913D02*
D03*
Y1237354D02*
D03*
Y1234795D02*
D03*
Y1232236D02*
D03*
X1262957Y1255268D02*
D03*
Y1252709D02*
D03*
Y1250150D02*
D03*
Y1247591D02*
D03*
Y1245032D02*
D03*
Y1242472D02*
D03*
Y1239913D02*
D03*
Y1237354D02*
D03*
Y1234795D02*
D03*
Y1232236D02*
D03*
D67*
X1291287Y801181D02*
D03*
X1310387D02*
D03*
D68*
X1251963Y800394D02*
D03*
X1240163D02*
D03*
M02*
