G04*
G04 #@! TF.GenerationSoftware,Altium Limited,Altium Designer,18.0.12 (696)*
G04*
G04 Layer_Color=16711935*
%FSLAX25Y25*%
%MOIN*%
G70*
G01*
G75*
%ADD17R,0.03800X0.03600*%
%ADD30C,0.12611*%
%ADD31C,0.06706*%
%ADD32R,0.06706X0.06706*%
%ADD33C,0.10249*%
%ADD34C,0.14186*%
%ADD35C,0.05800*%
G04:AMPARAMS|DCode=65|XSize=25.72mil|YSize=70.99mil|CornerRadius=5.95mil|HoleSize=0mil|Usage=FLASHONLY|Rotation=270.000|XOffset=0mil|YOffset=0mil|HoleType=Round|Shape=RoundedRectangle|*
%AMROUNDEDRECTD65*
21,1,0.02572,0.05909,0,0,270.0*
21,1,0.01382,0.07099,0,0,270.0*
1,1,0.01190,-0.02955,-0.00691*
1,1,0.01190,-0.02955,0.00691*
1,1,0.01190,0.02955,0.00691*
1,1,0.01190,0.02955,-0.00691*
%
%ADD65ROUNDEDRECTD65*%
%ADD66R,0.07887X0.11430*%
%ADD67R,0.05131X0.09068*%
D17*
X1288568Y1221693D02*
D03*
Y1215315D02*
D03*
X1286220Y1388976D02*
D03*
Y1395354D02*
D03*
D30*
X1361024Y1169685D02*
D03*
Y1150000D02*
D03*
D31*
X1265569Y800579D02*
D03*
X1275569D02*
D03*
X1203819Y770748D02*
D03*
X1177835D02*
D03*
X1200000Y1153622D02*
D03*
Y1143622D02*
D03*
Y1133622D02*
D03*
Y1123622D02*
D03*
D32*
X1203819Y760748D02*
D03*
X1177835D02*
D03*
X1200000Y1113622D02*
D03*
D33*
X1339370Y1159842D02*
D03*
X1338976Y1174409D02*
D03*
D34*
X1398425Y898819D02*
D03*
Y946063D02*
D03*
X1398425Y1284646D02*
D03*
X1150394Y922441D02*
D03*
Y898819D02*
D03*
Y946063D02*
D03*
X1398425Y1261024D02*
D03*
Y1308268D02*
D03*
X1150394D02*
D03*
Y1261024D02*
D03*
Y1284646D02*
D03*
X1398425Y922441D02*
D03*
D35*
X1207087Y1040945D02*
D03*
X1348032Y1042126D02*
D03*
X1225197Y1381890D02*
D03*
Y1371260D02*
D03*
X1228740Y1348425D02*
D03*
X1234646Y1019291D02*
D03*
X1224409Y961417D02*
D03*
X1357480Y901575D02*
D03*
X1199213Y1231890D02*
D03*
X1308661Y1005512D02*
D03*
X1306693Y998425D02*
D03*
X1247638Y1276378D02*
D03*
X1340158Y891732D02*
D03*
X1211811Y1027559D02*
D03*
X1257874Y1020472D02*
D03*
X1212992Y1057087D02*
D03*
Y1081496D02*
D03*
X1277165Y959055D02*
D03*
X1224803Y1000000D02*
D03*
X1290551Y947638D02*
D03*
X1305512Y940158D02*
D03*
X1319685Y1150000D02*
D03*
X1311811Y699213D02*
D03*
X1258268Y1044094D02*
D03*
X1265748Y1033071D02*
D03*
X1320079Y694488D02*
D03*
X1310236Y905512D02*
D03*
X1242913Y1288976D02*
D03*
X1237402Y1302331D02*
D03*
X1355512Y1026221D02*
D03*
Y1016220D02*
D03*
Y1006221D02*
D03*
Y996220D02*
D03*
Y986220D02*
D03*
Y976221D02*
D03*
Y966220D02*
D03*
Y956221D02*
D03*
X1227953Y1362992D02*
D03*
X1224803Y1391339D02*
D03*
Y1399606D02*
D03*
X1235827Y1314961D02*
D03*
X1231039Y1336220D02*
D03*
X1224803Y1408661D02*
D03*
X1229921Y1438583D02*
D03*
X1233858Y1325591D02*
D03*
X1230315Y1447244D02*
D03*
Y1456693D02*
D03*
X1229921Y1468110D02*
D03*
X1309842Y1413780D02*
D03*
X1294094Y1348425D02*
D03*
X1293898Y1500197D02*
D03*
X1299606Y1478740D02*
D03*
X1305315Y1457283D02*
D03*
X1310236Y1435827D02*
D03*
X1299606Y1370472D02*
D03*
X1304724Y1391732D02*
D03*
X1310236Y1240551D02*
D03*
X1305118Y1218110D02*
D03*
X1300000Y1196850D02*
D03*
X1310630Y1262205D02*
D03*
X1305709Y1283661D02*
D03*
X1300000Y1305118D02*
D03*
X1294291Y1326575D02*
D03*
X1294488Y1175591D02*
D03*
D65*
X1286772Y1428555D02*
D03*
Y1425996D02*
D03*
Y1423437D02*
D03*
Y1420878D02*
D03*
Y1418319D02*
D03*
Y1415760D02*
D03*
Y1413201D02*
D03*
Y1410642D02*
D03*
Y1408083D02*
D03*
Y1405524D02*
D03*
X1262756Y1428555D02*
D03*
Y1425996D02*
D03*
Y1423437D02*
D03*
Y1420878D02*
D03*
Y1418319D02*
D03*
Y1415760D02*
D03*
Y1413201D02*
D03*
Y1410642D02*
D03*
Y1408083D02*
D03*
Y1405524D02*
D03*
X1286972Y1255268D02*
D03*
Y1252709D02*
D03*
Y1250150D02*
D03*
Y1247591D02*
D03*
Y1245032D02*
D03*
Y1242472D02*
D03*
Y1239913D02*
D03*
Y1237354D02*
D03*
Y1234795D02*
D03*
Y1232236D02*
D03*
X1262957Y1255268D02*
D03*
Y1252709D02*
D03*
Y1250150D02*
D03*
Y1247591D02*
D03*
Y1245032D02*
D03*
Y1242472D02*
D03*
Y1239913D02*
D03*
Y1237354D02*
D03*
Y1234795D02*
D03*
Y1232236D02*
D03*
D66*
X1291287Y801181D02*
D03*
X1310387D02*
D03*
D67*
X1251963Y800394D02*
D03*
X1240163D02*
D03*
M02*
