G04*
G04 #@! TF.GenerationSoftware,Altium Limited,Altium Designer,18.0.12 (696)*
G04*
G04 Layer_Color=16711935*
%FSLAX25Y25*%
%MOIN*%
G70*
G01*
G75*
%ADD69C,0.00394*%
D69*
X1271417Y1407590D02*
X1271154Y1408575D01*
X1270433Y1409295D01*
X1269449Y1409559D01*
X1268465Y1409295D01*
X1267744Y1408575D01*
X1267480Y1407590D01*
X1267744Y1406606D01*
X1268465Y1405886D01*
X1269449Y1405622D01*
X1270433Y1405886D01*
X1271154Y1406606D01*
X1271417Y1407590D01*
X1271618Y1234303D02*
X1271354Y1235287D01*
X1270634Y1236008D01*
X1269650Y1236272D01*
X1268665Y1236008D01*
X1267945Y1235287D01*
X1267681Y1234303D01*
X1267945Y1233319D01*
X1268665Y1232598D01*
X1269650Y1232335D01*
X1270634Y1232598D01*
X1271354Y1233319D01*
X1271618Y1234303D01*
X1261811Y973622D02*
X1261547Y974606D01*
X1260827Y975327D01*
X1259842Y975591D01*
X1258858Y975327D01*
X1258138Y974606D01*
X1257874Y973622D01*
X1258138Y972638D01*
X1258858Y971917D01*
X1259842Y971653D01*
X1260827Y971917D01*
X1261547Y972638D01*
X1261811Y973622D01*
X1311614Y1089567D02*
X1326181D01*
X1311614Y1063189D02*
X1326181D01*
X1311614D02*
Y1089567D01*
X1326181Y1063189D02*
Y1089567D01*
X1265905Y1430031D02*
X1283622D01*
X1265905Y1404047D02*
X1283622D01*
Y1430031D01*
X1265905Y1404047D02*
Y1430031D01*
X1266106Y1256744D02*
X1283823D01*
X1266106Y1230760D02*
X1283823D01*
Y1256744D01*
X1266106Y1230760D02*
Y1256744D01*
X1295669Y970079D02*
Y1009449D01*
X1256299Y970079D02*
Y1009449D01*
X1295669D01*
X1256299Y970079D02*
X1295669D01*
X1252658Y796949D02*
Y803839D01*
X1239468Y796949D02*
Y803839D01*
X1252658D01*
X1239468Y796949D02*
X1252658D01*
X1265354Y1330315D02*
X1285039D01*
X1265354Y1310630D02*
X1285039D01*
Y1330315D01*
X1265354Y1310630D02*
Y1330315D01*
Y1308661D02*
X1285039D01*
X1265354Y1288976D02*
X1285039D01*
Y1308661D01*
X1265354Y1288976D02*
Y1308661D01*
Y1287008D02*
X1285039D01*
X1265354Y1267323D02*
X1285039D01*
Y1287008D01*
X1265354Y1267323D02*
Y1287008D01*
Y1265354D02*
X1285039D01*
X1265354Y1245669D02*
X1285039D01*
Y1265354D01*
X1265354Y1245669D02*
Y1265354D01*
Y1243701D02*
X1285039D01*
X1265354Y1224016D02*
X1285039D01*
Y1243701D01*
X1265354Y1224016D02*
Y1243701D01*
Y1222047D02*
X1285039D01*
X1265354Y1202362D02*
X1285039D01*
Y1222047D01*
X1265354Y1202362D02*
Y1222047D01*
Y1200394D02*
X1285039D01*
X1265354Y1180709D02*
X1285039D01*
Y1200394D01*
X1265354Y1180709D02*
Y1200394D01*
Y1178740D02*
X1285039D01*
X1265354Y1159055D02*
X1285039D01*
Y1178740D01*
X1265354Y1159055D02*
Y1178740D01*
Y1332283D02*
Y1351968D01*
X1285039Y1332283D02*
Y1351968D01*
X1265354Y1332283D02*
X1285039D01*
X1265354Y1351968D02*
X1285039D01*
X1265354Y1483858D02*
Y1503543D01*
X1285039Y1483858D02*
Y1503543D01*
X1265354Y1483858D02*
X1285039D01*
X1265354Y1503543D02*
X1285039D01*
X1265354Y1462205D02*
Y1481890D01*
X1285039Y1462205D02*
Y1481890D01*
X1265354Y1462205D02*
X1285039D01*
X1265354Y1481890D02*
X1285039D01*
X1265354Y1440551D02*
Y1460236D01*
X1285039Y1440551D02*
Y1460236D01*
X1265354Y1440551D02*
X1285039D01*
X1265354Y1460236D02*
X1285039D01*
X1265354Y1418898D02*
Y1438583D01*
X1285039Y1418898D02*
Y1438583D01*
X1265354Y1418898D02*
X1285039D01*
X1265354Y1438583D02*
X1285039D01*
X1265354Y1397244D02*
Y1416929D01*
X1285039Y1397244D02*
Y1416929D01*
X1265354Y1397244D02*
X1285039D01*
X1265354Y1416929D02*
X1285039D01*
X1265354Y1375591D02*
Y1395276D01*
X1285039Y1375591D02*
Y1395276D01*
X1265354Y1375591D02*
X1285039D01*
X1265354Y1395276D02*
X1285039D01*
X1265354Y1353937D02*
Y1373622D01*
X1285039Y1353937D02*
Y1373622D01*
X1265354Y1353937D02*
X1285039D01*
X1265354Y1373622D02*
X1285039D01*
M02*
