G04*
G04 #@! TF.GenerationSoftware,Altium Limited,Altium Designer,18.0.12 (696)*
G04*
G04 Layer_Color=32896*
%FSLAX25Y25*%
%MOIN*%
G70*
G01*
G75*
%ADD10C,0.00984*%
%ADD11C,0.02362*%
%ADD13C,0.01000*%
%ADD14C,0.00800*%
%ADD16C,0.00787*%
D10*
X1263248Y1402472D02*
X1262510Y1402899D01*
Y1402046D01*
X1263248Y1402472D01*
X1263449Y1229185D02*
X1262711Y1229611D01*
Y1228759D01*
X1263449Y1229185D01*
D11*
X1272598Y1407984D02*
X1272154Y1408908D01*
X1271154Y1409136D01*
X1270353Y1408497D01*
Y1407472D01*
X1271154Y1406833D01*
X1272154Y1407061D01*
X1272598Y1407984D01*
X1272799Y1234697D02*
X1272355Y1235620D01*
X1271355Y1235848D01*
X1270554Y1235209D01*
Y1234184D01*
X1271355Y1233545D01*
X1272355Y1233773D01*
X1272799Y1234697D01*
D13*
X1280697Y806656D02*
X1280142Y807496D01*
X1279518Y808286D01*
X1278829Y809021D01*
X1278080Y809694D01*
X1277277Y810300D01*
X1276424Y810836D01*
X1275529Y811298D01*
X1274598Y811681D01*
X1273637Y811984D01*
X1272655Y812204D01*
X1271657Y812340D01*
X1270651Y812389D01*
X1269645Y812354D01*
X1268645Y812232D01*
X1267660Y812026D01*
X1266695Y811736D01*
X1265759Y811366D01*
X1264857Y810917D01*
X1263997Y810393D01*
X1263185Y809797D01*
X1262427Y809135D01*
X1261728Y808410D01*
X1261093Y807629D01*
X1260527Y806796D01*
X1260034Y805918D01*
X1259617Y805001D01*
X1259280Y804052D01*
X1259025Y803078D01*
X1258854Y802086D01*
X1258769Y801082D01*
Y800075D01*
X1258854Y799072D01*
X1259025Y798080D01*
X1259280Y797105D01*
X1259617Y796156D01*
X1260034Y795240D01*
X1260527Y794362D01*
X1261093Y793529D01*
X1261728Y792747D01*
X1262427Y792023D01*
X1263185Y791360D01*
X1263997Y790765D01*
X1264857Y790241D01*
X1265759Y789792D01*
X1266695Y789421D01*
X1267660Y789132D01*
X1268645Y788926D01*
X1269645Y788804D01*
X1270651Y788768D01*
X1271657Y788818D01*
X1272655Y788953D01*
X1273637Y789173D01*
X1274598Y789476D01*
X1275529Y789860D01*
X1276424Y790321D01*
X1277277Y790857D01*
X1278080Y791464D01*
X1278829Y792137D01*
X1279518Y792871D01*
X1280142Y793661D01*
X1280697Y794502D01*
Y794656D02*
Y806656D01*
X1277576Y816556D02*
Y819180D01*
X1278232Y819836D01*
X1279544D01*
X1280200Y819180D01*
Y816556D01*
X1279544Y815900D01*
X1278232D01*
X1278888Y817212D02*
X1277576Y815900D01*
X1278232D02*
X1277576Y816556D01*
X1276264Y815900D02*
X1274952D01*
X1275608D01*
Y819836D01*
X1276264Y819180D01*
X1291000Y1439036D02*
Y1435756D01*
X1290344Y1435100D01*
X1289032D01*
X1288376Y1435756D01*
Y1439036D01*
X1284441Y1435100D02*
X1287064D01*
X1284441Y1437724D01*
Y1438380D01*
X1285096Y1439036D01*
X1286408D01*
X1287064Y1438380D01*
X1278610Y1221392D02*
X1277954Y1222048D01*
Y1223360D01*
X1278610Y1224016D01*
X1281234D01*
X1281890Y1223360D01*
Y1222048D01*
X1281234Y1221392D01*
X1281890Y1217456D02*
Y1220080D01*
X1279266Y1217456D01*
X1278610D01*
X1277954Y1218112D01*
Y1219424D01*
X1278610Y1220080D01*
Y1216144D02*
X1277954Y1215488D01*
Y1214176D01*
X1278610Y1213521D01*
X1279266D01*
X1279922Y1214176D01*
Y1214832D01*
Y1214176D01*
X1280578Y1213521D01*
X1281234D01*
X1281890Y1214176D01*
Y1215488D01*
X1281234Y1216144D01*
X1276720Y1392731D02*
X1276064Y1393386D01*
Y1394698D01*
X1276720Y1395354D01*
X1279344D01*
X1280000Y1394698D01*
Y1393386D01*
X1279344Y1392731D01*
X1280000Y1389451D02*
X1276064D01*
X1278032Y1391419D01*
Y1388795D01*
X1291200Y1265736D02*
Y1262456D01*
X1290544Y1261800D01*
X1289232D01*
X1288576Y1262456D01*
Y1265736D01*
X1287264Y1261800D02*
X1285952D01*
X1286608D01*
Y1265736D01*
X1287264Y1265080D01*
X1283984Y1262456D02*
X1283329Y1261800D01*
X1282017D01*
X1281361Y1262456D01*
Y1265080D01*
X1282017Y1265736D01*
X1283329D01*
X1283984Y1265080D01*
Y1264424D01*
X1283329Y1263768D01*
X1281361D01*
X1314200Y811600D02*
Y815536D01*
X1312232D01*
X1311576Y814880D01*
Y813568D01*
X1312232Y812912D01*
X1314200D01*
X1312888D02*
X1311576Y811600D01*
X1310264Y814880D02*
X1309608Y815536D01*
X1308296D01*
X1307640Y814880D01*
Y814224D01*
X1308296Y813568D01*
X1308952D01*
X1308296D01*
X1307640Y812912D01*
Y812256D01*
X1308296Y811600D01*
X1309608D01*
X1310264Y812256D01*
X1252376Y812980D02*
X1253032Y813636D01*
X1254344D01*
X1255000Y812980D01*
Y810356D01*
X1254344Y809700D01*
X1253032D01*
X1252376Y810356D01*
X1249096Y809700D02*
Y813636D01*
X1251064Y811668D01*
X1248440D01*
X1247128Y813636D02*
X1244505D01*
Y812980D01*
X1247128Y810356D01*
Y809700D01*
D14*
X1291583Y1212504D02*
Y1216504D01*
X1285583Y1212504D02*
X1291583D01*
X1285583D02*
Y1216504D01*
X1291583Y1220504D02*
Y1224504D01*
X1285583D02*
X1291583D01*
X1285583Y1220504D02*
Y1224504D01*
X1286954Y1218504D02*
X1290183D01*
X1284606Y1392165D02*
X1287835D01*
X1283235Y1394165D02*
Y1398165D01*
X1289235D01*
Y1394165D02*
Y1398165D01*
X1283235Y1386165D02*
Y1390165D01*
Y1386165D02*
X1289235D01*
Y1390165D01*
D16*
X1267480Y1430031D02*
X1282047D01*
X1267480Y1404047D02*
X1282047D01*
Y1430031D01*
X1267480Y1404047D02*
Y1430031D01*
X1267681Y1256744D02*
X1282248D01*
X1267681Y1230760D02*
X1282248D01*
Y1256744D01*
X1267681Y1230760D02*
Y1256744D01*
X1286787Y794181D02*
X1289787D01*
X1286787D02*
Y808181D01*
X1289787D01*
X1310787Y794181D02*
X1314787D01*
Y808181D01*
X1310787D02*
X1314787D01*
X1253063Y806299D02*
X1255563D01*
Y794488D02*
Y806299D01*
X1253063Y794488D02*
X1255563D01*
X1236563Y806299D02*
X1239063D01*
X1236563Y794488D02*
Y806299D01*
Y794488D02*
X1239063D01*
X1246063Y797194D02*
Y803572D01*
M02*
