G04*
G04 #@! TF.GenerationSoftware,Altium Limited,Altium Designer,18.0.12 (696)*
G04*
G04 Layer_Color=16711935*
%FSLAX25Y25*%
%MOIN*%
G70*
G01*
G75*
%ADD54C,0.02000*%
D54*
X1212598Y1538583D02*
Y1538976D01*
X1389370Y741732D02*
Y743701D01*
X1330315Y682677D02*
X1389370Y741732D01*
X1159449Y738583D02*
Y740158D01*
Y738583D02*
X1215354Y682677D01*
X1389370Y1459842D02*
Y1465354D01*
X1235827Y678740D02*
X1236614Y679528D01*
X1230709Y668110D02*
X1235827Y673228D01*
X1228740Y668110D02*
X1230709D01*
X1235827Y673228D02*
Y678740D01*
X1236614Y679528D02*
X1303150D01*
X1303937Y674016D02*
Y678740D01*
X1303150Y679528D02*
X1303937Y678740D01*
X1309842Y668110D02*
X1329528D01*
X1303937Y674016D02*
X1309842Y668110D01*
X1212992D02*
X1228740D01*
X1215354Y682677D02*
X1330315D01*
X1331496Y1523228D02*
X1389370Y1465354D01*
X1330709Y1538583D02*
X1407086Y1462205D01*
X1330709Y1538583D02*
Y1538976D01*
X1141732Y1467717D02*
X1212598Y1538583D01*
Y1538976D02*
X1330709Y1538976D01*
X1141339Y739764D02*
X1212992Y668110D01*
X1141339Y739764D02*
Y740551D01*
X1329528Y668110D02*
X1332283D01*
X1407480Y743307D01*
Y743701D01*
X1407086Y1462205D02*
X1407480Y743701D01*
X1141339Y740551D02*
X1141732Y1467717D01*
X1159449Y1459842D02*
Y1470472D01*
X1212205Y1523228D01*
X1213386D01*
X1389370Y1459842D02*
X1389370Y743701D01*
X1331496Y1523228D02*
Y1523228D01*
X1213386D02*
X1331496D01*
X1159449Y1459842D02*
X1159449Y740158D01*
M02*
