G04*
G04 #@! TF.GenerationSoftware,Altium Limited,Altium Designer,18.1.6 (161)*
G04*
G04 Layer_Color=65535*
%FSLAX25Y25*%
%MOIN*%
G70*
G01*
G75*
%ADD10C,0.00984*%
%ADD11C,0.02362*%
%ADD12C,0.01181*%
%ADD13C,0.00600*%
%ADD14C,0.01000*%
%ADD15C,0.00800*%
%ADD16C,0.00787*%
D10*
X1331004Y1063189D02*
X1330266Y1063615D01*
Y1062763D01*
X1331004Y1063189D01*
X1258957Y967126D02*
X1258218Y967552D01*
Y966700D01*
X1258957Y967126D01*
X1252858Y876370D02*
X1252120Y876796D01*
Y875944D01*
X1252858Y876370D01*
X1260925Y1326968D02*
X1260187Y1327395D01*
Y1326542D01*
X1260925Y1326968D01*
Y1305315D02*
X1260187Y1305741D01*
Y1304889D01*
X1260925Y1305315D01*
Y1283661D02*
X1260187Y1284088D01*
Y1283235D01*
X1260925Y1283661D01*
Y1262008D02*
X1260187Y1262434D01*
Y1261582D01*
X1260925Y1262008D01*
Y1240354D02*
X1260187Y1240781D01*
Y1239928D01*
X1260925Y1240354D01*
Y1218701D02*
X1260187Y1219127D01*
Y1218275D01*
X1260925Y1218701D01*
Y1197047D02*
X1260187Y1197473D01*
Y1196621D01*
X1260925Y1197047D01*
Y1175394D02*
X1260187Y1175820D01*
Y1174967D01*
X1260925Y1175394D01*
Y1348622D02*
X1260187Y1349048D01*
Y1348196D01*
X1260925Y1348622D01*
Y1500197D02*
X1260187Y1500623D01*
Y1499771D01*
X1260925Y1500197D01*
Y1478543D02*
X1260187Y1478969D01*
Y1478117D01*
X1260925Y1478543D01*
Y1456890D02*
X1260187Y1457316D01*
Y1456464D01*
X1260925Y1456890D01*
Y1435236D02*
X1260187Y1435662D01*
Y1434810D01*
X1260925Y1435236D01*
Y1413583D02*
X1260187Y1414009D01*
Y1413157D01*
X1260925Y1413583D01*
Y1391929D02*
X1260187Y1392355D01*
Y1391503D01*
X1260925Y1391929D01*
Y1370276D02*
X1260187Y1370702D01*
Y1369849D01*
X1260925Y1370276D01*
D11*
X1262402Y975000D02*
X1261957Y975923D01*
X1260958Y976151D01*
X1260156Y975513D01*
Y974488D01*
X1260958Y973849D01*
X1261957Y974077D01*
X1262402Y975000D01*
D12*
X1301968Y1103543D02*
X1301950Y1104544D01*
X1301896Y1105543D01*
X1301805Y1106540D01*
X1301678Y1107533D01*
X1301515Y1108520D01*
X1301317Y1109501D01*
X1301083Y1110474D01*
X1300813Y1111438D01*
X1300509Y1112392D01*
X1300171Y1113334D01*
X1299798Y1114263D01*
X1299392Y1115178D01*
X1298953Y1116077D01*
X1298482Y1116960D01*
X1297979Y1117825D01*
X1297445Y1118672D01*
X1296880Y1119498D01*
X1296286Y1120304D01*
X1295663Y1121087D01*
X1295012Y1121847D01*
X1294334Y1122583D01*
X1293629Y1123294D01*
X1292900Y1123979D01*
X1292145Y1124637D01*
X1291368Y1125267D01*
X1290568Y1125868D01*
X1289746Y1126440D01*
X1288905Y1126982D01*
X1288044Y1127493D01*
X1287166Y1127972D01*
X1286270Y1128419D01*
X1285359Y1128834D01*
X1284433Y1129215D01*
X1283495Y1129562D01*
X1282544Y1129875D01*
X1281583Y1130153D01*
X1280612Y1130395D01*
X1279632Y1130603D01*
X1278646Y1130775D01*
X1277655Y1130911D01*
X1276659Y1131010D01*
X1275660Y1131074D01*
X1274660Y1131101D01*
X1273659Y1131092D01*
X1272659Y1131047D01*
X1271661Y1130965D01*
X1270668Y1130847D01*
X1269679Y1130693D01*
X1268696Y1130504D01*
X1267721Y1130278D01*
X1266754Y1130018D01*
X1265798Y1129722D01*
X1264853Y1129393D01*
X1263921Y1129028D01*
X1263002Y1128631D01*
X1262099Y1128200D01*
X1261212Y1127737D01*
X1260342Y1127242D01*
X1259491Y1126715D01*
X1258659Y1126158D01*
X1257848Y1125571D01*
X1257059Y1124955D01*
X1256293Y1124311D01*
X1255551Y1123640D01*
X1254834Y1122942D01*
X1254142Y1122218D01*
X1253478Y1121470D01*
X1252841Y1120698D01*
X1252232Y1119904D01*
X1251653Y1119088D01*
X1251103Y1118251D01*
X1250584Y1117395D01*
X1250097Y1116521D01*
X1249642Y1115629D01*
X1249220Y1114722D01*
X1248830Y1113800D01*
X1248475Y1112864D01*
X1248153Y1111917D01*
X1247867Y1110958D01*
X1247615Y1109989D01*
X1247398Y1109012D01*
X1247218Y1108027D01*
X1247073Y1107037D01*
X1246964Y1106042D01*
X1246891Y1105044D01*
X1246855Y1104044D01*
X1246855Y1103043D01*
X1246891Y1102043D01*
X1246964Y1101044D01*
X1247073Y1100050D01*
X1247218Y1099059D01*
X1247398Y1098075D01*
X1247615Y1097098D01*
X1247867Y1096129D01*
X1248153Y1095170D01*
X1248475Y1094222D01*
X1248830Y1093287D01*
X1249219Y1092365D01*
X1249642Y1091457D01*
X1250097Y1090566D01*
X1250584Y1089692D01*
X1251103Y1088836D01*
X1251652Y1087999D01*
X1252232Y1087183D01*
X1252841Y1086389D01*
X1253478Y1085617D01*
X1254142Y1084869D01*
X1254834Y1084145D01*
X1255551Y1083447D01*
X1256293Y1082775D01*
X1257059Y1082131D01*
X1257848Y1081515D01*
X1258659Y1080929D01*
X1259491Y1080372D01*
X1260342Y1079845D01*
X1261212Y1079350D01*
X1262099Y1078887D01*
X1263002Y1078456D01*
X1263921Y1078058D01*
X1264853Y1077694D01*
X1265798Y1077364D01*
X1266754Y1077069D01*
X1267721Y1076808D01*
X1268696Y1076583D01*
X1269678Y1076393D01*
X1270667Y1076239D01*
X1271661Y1076122D01*
X1272659Y1076040D01*
X1273659Y1075994D01*
X1274660Y1075985D01*
X1275660Y1076013D01*
X1276659Y1076076D01*
X1277655Y1076176D01*
X1278646Y1076312D01*
X1279632Y1076484D01*
X1280611Y1076691D01*
X1281582Y1076934D01*
X1282544Y1077212D01*
X1283495Y1077525D01*
X1284433Y1077872D01*
X1285359Y1078253D01*
X1286270Y1078667D01*
X1287166Y1079114D01*
X1288044Y1079593D01*
X1288905Y1080104D01*
X1289746Y1080646D01*
X1290568Y1081218D01*
X1291368Y1081820D01*
X1292145Y1082450D01*
X1292900Y1083108D01*
X1293629Y1083792D01*
X1294334Y1084503D01*
X1295012Y1085239D01*
X1295663Y1086000D01*
X1296286Y1086783D01*
X1296880Y1087588D01*
X1297445Y1088415D01*
X1297979Y1089261D01*
X1298482Y1090126D01*
X1298953Y1091009D01*
X1299392Y1091909D01*
X1299798Y1092824D01*
X1300171Y1093753D01*
X1300509Y1094695D01*
X1300813Y1095648D01*
X1301083Y1096612D01*
X1301317Y1097585D01*
X1301515Y1098566D01*
X1301678Y1099554D01*
X1301805Y1100546D01*
X1301896Y1101543D01*
X1301950Y1102543D01*
X1301968Y1103543D01*
D13*
X1206693Y857874D02*
Y858858D01*
X1202756D02*
X1206693D01*
X1202756Y857874D02*
Y858858D01*
X1201772Y846063D02*
Y857874D01*
X1207677D01*
Y846063D02*
Y857874D01*
X1201772Y846063D02*
X1207677D01*
X1187795Y856890D02*
Y857874D01*
X1183858D02*
X1187795D01*
X1183858Y856890D02*
Y857874D01*
X1182874Y845079D02*
Y856890D01*
X1188780D01*
Y845079D02*
Y856890D01*
X1182874Y845079D02*
X1188780D01*
X1211812Y938780D02*
Y939764D01*
Y938780D02*
X1215749D01*
Y939764D01*
X1216734D02*
Y951575D01*
X1210828Y939764D02*
X1216734D01*
X1210828D02*
Y951575D01*
X1216734D01*
X1196850Y938780D02*
Y939764D01*
Y938780D02*
X1200787D01*
Y939764D01*
X1201772D02*
Y951575D01*
X1195866Y939764D02*
X1201772D01*
X1195866D02*
Y951575D01*
X1201772D01*
X1183465Y938661D02*
Y939646D01*
Y938661D02*
X1187402D01*
Y939646D01*
X1188386D02*
Y951457D01*
X1182480Y939646D02*
X1188386D01*
X1182480D02*
Y951457D01*
X1188386D01*
D14*
X1378740Y1139772D02*
Y1179528D01*
X1348819Y1139772D02*
X1378740D01*
X1348819D02*
Y1179528D01*
X1378740D01*
X1308457Y1029528D02*
X1318457D01*
X1320913Y911417D02*
X1330913D01*
X1187598Y1046457D02*
Y1070079D01*
X1188976D01*
X1187598Y1046457D02*
X1188976D01*
X1201378D02*
Y1070079D01*
X1200000Y1046457D02*
X1201378D01*
X1200000Y1070079D02*
X1201378D01*
X1213385Y856299D02*
X1209449D01*
Y853675D01*
X1213385Y849740D02*
Y852363D01*
X1209449D01*
Y849740D01*
X1211417Y852363D02*
Y851052D01*
X1213385Y848428D02*
X1209449D01*
Y846460D01*
X1210105Y845804D01*
X1212729D01*
X1213385Y846460D01*
Y848428D01*
X1209449Y841868D02*
Y844492D01*
X1212073Y841868D01*
X1212729D01*
X1213385Y842524D01*
Y843836D01*
X1212729Y844492D01*
X1194487Y856299D02*
X1190551D01*
Y853675D01*
X1194487Y849740D02*
Y852363D01*
X1190551D01*
Y849740D01*
X1192519Y852363D02*
Y851052D01*
X1194487Y848428D02*
X1190551D01*
Y846460D01*
X1191207Y845804D01*
X1193831D01*
X1194487Y846460D01*
Y848428D01*
X1190551Y844492D02*
Y843180D01*
Y843836D01*
X1194487D01*
X1193831Y844492D01*
X1167322Y1464305D02*
Y1465617D01*
Y1464961D01*
X1164042D01*
X1163386Y1465617D01*
Y1466273D01*
X1164042Y1466929D01*
X1166010Y1462337D02*
Y1461026D01*
X1165354Y1460370D01*
X1163386D01*
Y1462337D01*
X1164042Y1462993D01*
X1164698Y1462337D01*
Y1460370D01*
X1163386Y1459058D02*
X1167322D01*
X1164698D02*
X1166010Y1457090D01*
X1164698Y1459058D02*
X1163386Y1457090D01*
X1166010Y1455122D02*
X1164042D01*
X1163386Y1454466D01*
Y1452498D01*
X1166010D01*
X1167322Y1451186D02*
X1163386D01*
Y1449218D01*
X1164042Y1448562D01*
X1164698D01*
X1165354D01*
X1166010Y1449218D01*
Y1451186D01*
X1167322Y1443315D02*
X1163386D01*
X1164698Y1442003D01*
X1163386Y1440691D01*
X1167322D01*
X1163386Y1439379D02*
Y1438067D01*
Y1438723D01*
X1166010D01*
Y1439379D01*
X1163386Y1434131D02*
Y1435443D01*
X1164042Y1436099D01*
X1165354D01*
X1166010Y1435443D01*
Y1434131D01*
X1165354Y1433475D01*
X1164698D01*
Y1436099D01*
X1166010Y1429540D02*
Y1431508D01*
X1165354Y1432164D01*
X1164042D01*
X1163386Y1431508D01*
Y1429540D01*
X1166010Y1428228D02*
Y1425604D01*
X1163386Y1428228D01*
Y1425604D01*
Y1423636D02*
Y1422324D01*
X1164042Y1421668D01*
X1165354D01*
X1166010Y1422324D01*
Y1423636D01*
X1165354Y1424292D01*
X1164042D01*
X1163386Y1423636D01*
X1166010Y1420356D02*
X1163386D01*
X1164698D01*
X1165354Y1419700D01*
X1166010Y1419044D01*
Y1418388D01*
X1163386Y1414453D02*
Y1415765D01*
X1164042Y1416421D01*
X1165354D01*
X1166010Y1415765D01*
Y1414453D01*
X1165354Y1413797D01*
X1164698D01*
Y1416421D01*
X1163386Y1412485D02*
X1167322D01*
X1164698D02*
X1166010Y1410517D01*
X1164698Y1412485D02*
X1163386Y1410517D01*
X1322441Y1161810D02*
Y1159186D01*
X1323753Y1157874D01*
X1325065Y1159186D01*
Y1161810D01*
X1329000Y1161154D02*
X1328345Y1161810D01*
X1327033D01*
X1326377Y1161154D01*
Y1158530D01*
X1327033Y1157874D01*
X1328345D01*
X1329000Y1158530D01*
X1332936Y1161154D02*
X1332280Y1161810D01*
X1330968D01*
X1330312Y1161154D01*
Y1158530D01*
X1330968Y1157874D01*
X1332280D01*
X1332936Y1158530D01*
X1325065Y1176114D02*
X1324409Y1176770D01*
X1323097D01*
X1322441Y1176114D01*
Y1173491D01*
X1323097Y1172835D01*
X1324409D01*
X1325065Y1173491D01*
Y1174802D01*
X1323753D01*
X1326377Y1172835D02*
Y1176770D01*
X1329000Y1172835D01*
Y1176770D01*
X1330312D02*
Y1172835D01*
X1332280D01*
X1332936Y1173491D01*
Y1176114D01*
X1332280Y1176770D01*
X1330312D01*
X1354199Y1184776D02*
X1353543Y1185432D01*
X1352231D01*
X1351575Y1184776D01*
Y1182152D01*
X1352231Y1181496D01*
X1353543D01*
X1354199Y1182152D01*
X1357478Y1185432D02*
X1356166D01*
X1355511Y1184776D01*
Y1182152D01*
X1356166Y1181496D01*
X1357478D01*
X1358134Y1182152D01*
Y1184776D01*
X1357478Y1185432D01*
X1359446Y1181496D02*
Y1185432D01*
X1362070Y1181496D01*
Y1185432D01*
X1363382Y1181496D02*
X1364694D01*
X1364038D01*
Y1185432D01*
X1363382Y1184776D01*
X1220473Y972441D02*
X1224408D01*
Y970473D01*
X1223752Y969817D01*
X1222440D01*
X1221784Y970473D01*
Y972441D01*
Y971129D02*
X1220473Y969817D01*
X1224408Y965881D02*
X1223752Y967193D01*
X1222440Y968505D01*
X1221128D01*
X1220473Y967849D01*
Y966537D01*
X1221128Y965881D01*
X1221784D01*
X1222440Y966537D01*
Y968505D01*
X1204724Y972008D02*
X1208660D01*
Y970040D01*
X1208004Y969384D01*
X1206692D01*
X1206036Y970040D01*
Y972008D01*
Y970696D02*
X1204724Y969384D01*
X1208660Y965448D02*
Y968072D01*
X1206692D01*
X1207348Y966760D01*
Y966104D01*
X1206692Y965448D01*
X1205380D01*
X1204724Y966104D01*
Y967416D01*
X1205380Y968072D01*
X1190158Y970472D02*
X1194093D01*
Y968505D01*
X1193437Y967849D01*
X1192125D01*
X1191469Y968505D01*
Y970472D01*
Y969160D02*
X1190158Y967849D01*
Y964569D02*
X1194093D01*
X1192125Y966537D01*
Y963913D01*
X1223621Y952362D02*
X1219685D01*
Y949738D01*
X1223621Y945803D02*
Y948427D01*
X1219685D01*
Y945803D01*
X1221653Y948427D02*
Y947115D01*
X1223621Y944491D02*
X1219685D01*
Y942523D01*
X1220341Y941867D01*
X1222965D01*
X1223621Y942523D01*
Y944491D01*
Y937931D02*
Y940555D01*
X1221653D01*
X1222309Y939243D01*
Y938587D01*
X1221653Y937931D01*
X1220341D01*
X1219685Y938587D01*
Y939899D01*
X1220341Y940555D01*
X1209054Y952165D02*
X1205118D01*
Y949541D01*
X1209054Y945606D02*
Y948230D01*
X1205118D01*
Y945606D01*
X1207086Y948230D02*
Y946918D01*
X1209054Y944294D02*
X1205118D01*
Y942326D01*
X1205774Y941670D01*
X1208398D01*
X1209054Y942326D01*
Y944294D01*
X1205118Y938390D02*
X1209054D01*
X1207086Y940358D01*
Y937734D01*
X1194487Y952244D02*
X1190551D01*
Y949620D01*
X1194487Y945685D02*
Y948308D01*
X1190551D01*
Y945685D01*
X1192519Y948308D02*
Y946996D01*
X1194487Y944373D02*
X1190551D01*
Y942405D01*
X1191207Y941749D01*
X1193831D01*
X1194487Y942405D01*
Y944373D01*
X1193831Y940437D02*
X1194487Y939781D01*
Y938469D01*
X1193831Y937813D01*
X1193175D01*
X1192519Y938469D01*
Y939125D01*
Y938469D01*
X1191863Y937813D01*
X1191207D01*
X1190551Y938469D01*
Y939781D01*
X1191207Y940437D01*
X1241208Y948687D02*
X1240553Y948031D01*
Y946719D01*
X1241208Y946063D01*
X1243832D01*
X1244488Y946719D01*
Y948031D01*
X1243832Y948687D01*
X1244488Y949999D02*
Y951311D01*
Y950655D01*
X1240553D01*
X1241208Y949999D01*
X1244488Y953279D02*
Y954590D01*
Y953934D01*
X1240553D01*
X1241208Y953279D01*
X1307124Y1048780D02*
X1306468Y1049436D01*
X1305156D01*
X1304500Y1048780D01*
Y1046156D01*
X1305156Y1045500D01*
X1306468D01*
X1307124Y1046156D01*
X1308436Y1045500D02*
X1309748D01*
X1309092D01*
Y1049436D01*
X1308436Y1048780D01*
X1311716D02*
X1312372Y1049436D01*
X1313683D01*
X1314339Y1048780D01*
Y1046156D01*
X1313683Y1045500D01*
X1312372D01*
X1311716Y1046156D01*
Y1048780D01*
X1283465Y1021259D02*
Y1017979D01*
X1284120Y1017323D01*
X1285432D01*
X1286088Y1017979D01*
Y1021259D01*
X1289368Y1017323D02*
Y1021259D01*
X1287400Y1019291D01*
X1290024D01*
X1291336Y1020603D02*
X1291992Y1021259D01*
X1293304D01*
X1293960Y1020603D01*
Y1017979D01*
X1293304Y1017323D01*
X1291992D01*
X1291336Y1017979D01*
Y1020603D01*
X1362597Y936614D02*
X1358661D01*
Y933990D01*
Y932678D02*
Y931367D01*
Y932022D01*
X1362597D01*
X1361941Y932678D01*
X1281102Y898818D02*
X1283726Y894882D01*
Y898818D02*
X1281102Y894882D01*
X1285038D02*
X1286350D01*
X1285694D01*
Y898818D01*
X1285038Y898162D01*
X1239200Y778436D02*
Y775156D01*
X1239856Y774500D01*
X1241168D01*
X1241824Y775156D01*
Y778436D01*
X1243136Y777780D02*
X1243792Y778436D01*
X1245104D01*
X1245759Y777780D01*
Y777124D01*
X1245104Y776468D01*
X1244448D01*
X1245104D01*
X1245759Y775812D01*
Y775156D01*
X1245104Y774500D01*
X1243792D01*
X1243136Y775156D01*
X1247071D02*
X1247727Y774500D01*
X1249039D01*
X1249695Y775156D01*
Y777780D01*
X1249039Y778436D01*
X1247727D01*
X1247071Y777780D01*
Y777124D01*
X1247727Y776468D01*
X1249695D01*
X1309842Y1096455D02*
Y1093176D01*
X1310499Y1092520D01*
X1311810D01*
X1312466Y1093176D01*
Y1096455D01*
X1313778Y1095800D02*
X1314434Y1096455D01*
X1315746D01*
X1316402Y1095800D01*
Y1095144D01*
X1315746Y1094488D01*
X1315090D01*
X1315746D01*
X1316402Y1093832D01*
Y1093176D01*
X1315746Y1092520D01*
X1314434D01*
X1313778Y1093176D01*
X1317714Y1095800D02*
X1318370Y1096455D01*
X1319682D01*
X1320338Y1095800D01*
Y1095144D01*
X1319682Y1094488D01*
X1320338Y1093832D01*
Y1093176D01*
X1319682Y1092520D01*
X1318370D01*
X1317714Y1093176D01*
Y1093832D01*
X1318370Y1094488D01*
X1317714Y1095144D01*
Y1095800D01*
X1318370Y1094488D02*
X1319682D01*
X1290551Y1322046D02*
Y1318766D01*
X1291207Y1318110D01*
X1292519D01*
X1293175Y1318766D01*
Y1322046D01*
X1294487Y1321390D02*
X1295143Y1322046D01*
X1296455D01*
X1297111Y1321390D01*
Y1320734D01*
X1296455Y1320078D01*
X1295799D01*
X1296455D01*
X1297111Y1319422D01*
Y1318766D01*
X1296455Y1318110D01*
X1295143D01*
X1294487Y1318766D01*
X1301046Y1318110D02*
X1298423D01*
X1301046Y1320734D01*
Y1321390D01*
X1300391Y1322046D01*
X1299079D01*
X1298423Y1321390D01*
X1290158Y1299605D02*
Y1296325D01*
X1290813Y1295669D01*
X1292125D01*
X1292781Y1296325D01*
Y1299605D01*
X1294093Y1298949D02*
X1294749Y1299605D01*
X1296061D01*
X1296717Y1298949D01*
Y1298293D01*
X1296061Y1297637D01*
X1295405D01*
X1296061D01*
X1296717Y1296981D01*
Y1296325D01*
X1296061Y1295669D01*
X1294749D01*
X1294093Y1296325D01*
X1298029Y1298949D02*
X1298685Y1299605D01*
X1299997D01*
X1300653Y1298949D01*
Y1296325D01*
X1299997Y1295669D01*
X1298685D01*
X1298029Y1296325D01*
Y1298949D01*
X1290551Y1277952D02*
Y1274672D01*
X1291207Y1274016D01*
X1292519D01*
X1293175Y1274672D01*
Y1277952D01*
X1297111Y1274016D02*
X1294487D01*
X1297111Y1276640D01*
Y1277295D01*
X1296455Y1277952D01*
X1295143D01*
X1294487Y1277295D01*
X1298423D02*
X1299079Y1277952D01*
X1300391D01*
X1301046Y1277295D01*
Y1276640D01*
X1300391Y1275984D01*
X1301046Y1275328D01*
Y1274672D01*
X1300391Y1274016D01*
X1299079D01*
X1298423Y1274672D01*
Y1275328D01*
X1299079Y1275984D01*
X1298423Y1276640D01*
Y1277295D01*
X1299079Y1275984D02*
X1300391D01*
X1290551Y1255904D02*
Y1252625D01*
X1291207Y1251968D01*
X1292519D01*
X1293175Y1252625D01*
Y1255904D01*
X1297111Y1251968D02*
X1294487D01*
X1297111Y1254592D01*
Y1255248D01*
X1296455Y1255904D01*
X1295143D01*
X1294487Y1255248D01*
X1301046Y1255904D02*
X1298423D01*
Y1253936D01*
X1299734Y1254592D01*
X1300391D01*
X1301046Y1253936D01*
Y1252625D01*
X1300391Y1251968D01*
X1299079D01*
X1298423Y1252625D01*
X1290551Y1235038D02*
Y1231758D01*
X1291207Y1231102D01*
X1292519D01*
X1293175Y1231758D01*
Y1235038D01*
X1297111Y1231102D02*
X1294487D01*
X1297111Y1233726D01*
Y1234382D01*
X1296455Y1235038D01*
X1295143D01*
X1294487Y1234382D01*
X1300391Y1231102D02*
Y1235038D01*
X1298423Y1233070D01*
X1301046D01*
X1290551Y1214172D02*
Y1210892D01*
X1291207Y1210236D01*
X1292519D01*
X1293175Y1210892D01*
Y1214172D01*
X1297111Y1210236D02*
X1294487D01*
X1297111Y1212860D01*
Y1213516D01*
X1296455Y1214172D01*
X1295143D01*
X1294487Y1213516D01*
X1301046Y1210236D02*
X1298423D01*
X1301046Y1212860D01*
Y1213516D01*
X1300391Y1214172D01*
X1299079D01*
X1298423Y1213516D01*
X1290551Y1192125D02*
Y1188845D01*
X1291207Y1188189D01*
X1292519D01*
X1293175Y1188845D01*
Y1192125D01*
X1297111Y1188189D02*
X1294487D01*
X1297111Y1190813D01*
Y1191469D01*
X1296455Y1192125D01*
X1295143D01*
X1294487Y1191469D01*
X1298423D02*
X1299079Y1192125D01*
X1300391D01*
X1301046Y1191469D01*
Y1188845D01*
X1300391Y1188189D01*
X1299079D01*
X1298423Y1188845D01*
Y1191469D01*
X1291732Y1170471D02*
Y1167191D01*
X1292388Y1166535D01*
X1293700D01*
X1294356Y1167191D01*
Y1170471D01*
X1295668Y1166535D02*
X1296980D01*
X1296324D01*
Y1170471D01*
X1295668Y1169815D01*
X1298948Y1170471D02*
X1301572D01*
Y1169815D01*
X1298948Y1167191D01*
Y1166535D01*
X1290158Y1494487D02*
Y1491207D01*
X1290813Y1490551D01*
X1292125D01*
X1292781Y1491207D01*
Y1494487D01*
X1294093Y1491207D02*
X1294749Y1490551D01*
X1296061D01*
X1296717Y1491207D01*
Y1493831D01*
X1296061Y1494487D01*
X1294749D01*
X1294093Y1493831D01*
Y1493175D01*
X1294749Y1492519D01*
X1296717D01*
X1290551Y1472833D02*
Y1469554D01*
X1291207Y1468898D01*
X1292519D01*
X1293175Y1469554D01*
Y1472833D01*
X1294487Y1472177D02*
X1295143Y1472833D01*
X1296455D01*
X1297111Y1472177D01*
Y1471521D01*
X1296455Y1470866D01*
X1297111Y1470210D01*
Y1469554D01*
X1296455Y1468898D01*
X1295143D01*
X1294487Y1469554D01*
Y1470210D01*
X1295143Y1470866D01*
X1294487Y1471521D01*
Y1472177D01*
X1295143Y1470866D02*
X1296455D01*
X1290945Y1451967D02*
Y1448687D01*
X1291601Y1448032D01*
X1292913D01*
X1293569Y1448687D01*
Y1451967D01*
X1294881D02*
X1297504D01*
Y1451311D01*
X1294881Y1448687D01*
Y1448032D01*
X1291732Y1429920D02*
Y1426640D01*
X1292388Y1425984D01*
X1293700D01*
X1294356Y1426640D01*
Y1429920D01*
X1298292D02*
X1296980Y1429264D01*
X1295668Y1427952D01*
Y1426640D01*
X1296324Y1425984D01*
X1297636D01*
X1298292Y1426640D01*
Y1427296D01*
X1297636Y1427952D01*
X1295668D01*
X1290551Y1408266D02*
Y1404987D01*
X1291207Y1404331D01*
X1292519D01*
X1293175Y1404987D01*
Y1408266D01*
X1297111D02*
X1294487D01*
Y1406299D01*
X1295799Y1406954D01*
X1296455D01*
X1297111Y1406299D01*
Y1404987D01*
X1296455Y1404331D01*
X1295143D01*
X1294487Y1404987D01*
X1290945Y1386613D02*
Y1383333D01*
X1291601Y1382677D01*
X1292913D01*
X1293569Y1383333D01*
Y1386613D01*
X1296848Y1382677D02*
Y1386613D01*
X1294881Y1384645D01*
X1297504D01*
X1290945Y1364959D02*
Y1361680D01*
X1291601Y1361024D01*
X1292913D01*
X1293569Y1361680D01*
Y1364959D01*
X1294881Y1364303D02*
X1295537Y1364959D01*
X1296848D01*
X1297504Y1364303D01*
Y1363647D01*
X1296848Y1362992D01*
X1296192D01*
X1296848D01*
X1297504Y1362335D01*
Y1361680D01*
X1296848Y1361024D01*
X1295537D01*
X1294881Y1361680D01*
X1290551Y1343306D02*
Y1340026D01*
X1291207Y1339370D01*
X1292519D01*
X1293175Y1340026D01*
Y1343306D01*
X1294487Y1339370D02*
X1295799D01*
X1295143D01*
Y1343306D01*
X1294487Y1342650D01*
X1190724Y1080680D02*
X1190068Y1081336D01*
X1188756D01*
X1188100Y1080680D01*
Y1080024D01*
X1188756Y1079368D01*
X1190068D01*
X1190724Y1078712D01*
Y1078056D01*
X1190068Y1077400D01*
X1188756D01*
X1188100Y1078056D01*
X1192036Y1081336D02*
Y1077400D01*
X1193348Y1078712D01*
X1194660Y1077400D01*
Y1081336D01*
X1195971Y1077400D02*
X1197283D01*
X1196627D01*
Y1081336D01*
X1195971Y1080680D01*
X1211024Y810630D02*
X1214959D01*
Y808662D01*
X1214303Y808006D01*
X1212992D01*
X1212335Y808662D01*
Y810630D01*
Y809318D02*
X1211024Y808006D01*
Y804070D02*
Y806694D01*
X1213647Y804070D01*
X1214303D01*
X1214959Y804726D01*
Y806038D01*
X1214303Y806694D01*
X1191339Y810630D02*
X1195274D01*
Y808662D01*
X1194618Y808006D01*
X1193306D01*
X1192651Y808662D01*
Y810630D01*
Y809318D02*
X1191339Y808006D01*
Y806694D02*
Y805382D01*
Y806038D01*
X1195274D01*
X1194618Y806694D01*
X1195600Y1162000D02*
Y1165936D01*
X1197568D01*
X1198224Y1165280D01*
Y1163968D01*
X1197568Y1163312D01*
X1195600D01*
X1199536Y1162000D02*
X1200848D01*
X1200192D01*
Y1165936D01*
X1199536Y1165280D01*
X1215747Y768124D02*
Y769436D01*
Y768780D01*
X1212467D01*
X1211811Y769436D01*
Y770092D01*
X1212467Y770748D01*
X1211811Y766812D02*
X1215747D01*
Y764844D01*
X1215091Y764188D01*
X1213779D01*
X1213123Y764844D01*
Y766812D01*
X1211811Y760253D02*
Y762877D01*
X1214435Y760253D01*
X1215091D01*
X1215747Y760909D01*
Y762221D01*
X1215091Y762877D01*
X1174686Y763254D02*
Y761942D01*
Y762598D01*
X1177966D01*
X1178622Y761942D01*
Y761286D01*
X1177966Y760630D01*
X1178622Y764566D02*
X1174686D01*
Y766534D01*
X1175342Y767190D01*
X1176654D01*
X1177310Y766534D01*
Y764566D01*
X1178622Y768501D02*
Y769813D01*
Y769157D01*
X1174686D01*
X1175342Y768501D01*
X1225459Y890681D02*
X1224802Y891337D01*
X1223491D01*
X1222835Y890681D01*
Y888058D01*
X1223491Y887402D01*
X1224802D01*
X1225459Y888058D01*
X1228738Y887402D02*
Y891337D01*
X1226770Y889369D01*
X1229394D01*
X1232674Y887402D02*
Y891337D01*
X1230706Y889369D01*
X1233330D01*
X1305773Y891469D02*
X1305118Y892125D01*
X1303806D01*
X1303150Y891469D01*
Y888845D01*
X1303806Y888189D01*
X1305118D01*
X1305773Y888845D01*
X1309053Y888189D02*
Y892125D01*
X1307085Y890157D01*
X1309709D01*
X1311021Y891469D02*
X1311677Y892125D01*
X1312989D01*
X1313645Y891469D01*
Y890813D01*
X1312989Y890157D01*
X1313645Y889501D01*
Y888845D01*
X1312989Y888189D01*
X1311677D01*
X1311021Y888845D01*
Y889501D01*
X1311677Y890157D01*
X1311021Y890813D01*
Y891469D01*
X1311677Y890157D02*
X1312989D01*
X1330447Y754201D02*
X1331103Y753545D01*
X1332415D01*
X1333071Y754201D01*
Y756824D01*
X1332415Y757480D01*
X1331103D01*
X1330447Y756824D01*
X1327167Y757480D02*
Y753545D01*
X1329135Y755513D01*
X1326511D01*
X1322576Y753545D02*
X1323888Y754201D01*
X1325199Y755513D01*
Y756824D01*
X1324543Y757480D01*
X1323232D01*
X1322576Y756824D01*
Y756168D01*
X1323232Y755513D01*
X1325199D01*
X1357217Y887140D02*
X1357873Y887796D01*
Y889108D01*
X1357217Y889764D01*
X1354593D01*
X1353937Y889108D01*
Y887796D01*
X1354593Y887140D01*
X1353937Y883860D02*
X1357873D01*
X1355905Y885828D01*
Y883204D01*
X1357873Y879268D02*
Y881892D01*
X1355905D01*
X1356561Y880580D01*
Y879924D01*
X1355905Y879268D01*
X1354593D01*
X1353937Y879924D01*
Y881236D01*
X1354593Y881892D01*
X1346966Y938675D02*
X1347622Y939331D01*
Y940643D01*
X1346966Y941299D01*
X1344343D01*
X1343687Y940643D01*
Y939331D01*
X1344343Y938675D01*
X1343687Y935396D02*
X1347622D01*
X1345654Y937364D01*
Y934740D01*
X1346966Y933428D02*
X1347622Y932772D01*
Y931460D01*
X1346966Y930804D01*
X1346310D01*
X1345654Y931460D01*
Y932116D01*
Y931460D01*
X1344998Y930804D01*
X1344343D01*
X1343687Y931460D01*
Y932772D01*
X1344343Y933428D01*
X1330841Y893177D02*
X1331497Y892521D01*
X1332809D01*
X1333465Y893177D01*
Y895801D01*
X1332809Y896457D01*
X1331497D01*
X1330841Y895801D01*
X1327561Y896457D02*
Y892521D01*
X1329529Y894489D01*
X1326905D01*
X1322969Y896457D02*
X1325593D01*
X1322969Y893833D01*
Y893177D01*
X1323625Y892521D01*
X1324937D01*
X1325593Y893177D01*
X1248224Y1038280D02*
X1247568Y1038936D01*
X1246256D01*
X1245600Y1038280D01*
Y1035656D01*
X1246256Y1035000D01*
X1247568D01*
X1248224Y1035656D01*
X1251504Y1035000D02*
Y1038936D01*
X1249536Y1036968D01*
X1252160D01*
X1253471Y1035000D02*
X1254783D01*
X1254127D01*
Y1038936D01*
X1253471Y1038280D01*
X1307350Y953411D02*
X1306694Y952755D01*
Y951443D01*
X1307350Y950787D01*
X1309974D01*
X1310630Y951443D01*
Y952755D01*
X1309974Y953411D01*
X1310630Y956691D02*
X1306694D01*
X1308662Y954723D01*
Y957347D01*
X1307350Y958659D02*
X1306694Y959315D01*
Y960627D01*
X1307350Y961283D01*
X1309974D01*
X1310630Y960627D01*
Y959315D01*
X1309974Y958659D01*
X1307350D01*
X1232191Y983581D02*
X1231535Y984237D01*
X1230223D01*
X1229567Y983581D01*
Y980957D01*
X1230223Y980301D01*
X1231535D01*
X1232191Y980957D01*
X1233503Y983581D02*
X1234159Y984237D01*
X1235470D01*
X1236127Y983581D01*
Y982925D01*
X1235470Y982269D01*
X1234815D01*
X1235470D01*
X1236127Y981613D01*
Y980957D01*
X1235470Y980301D01*
X1234159D01*
X1233503Y980957D01*
X1237438D02*
X1238094Y980301D01*
X1239406D01*
X1240062Y980957D01*
Y983581D01*
X1239406Y984237D01*
X1238094D01*
X1237438Y983581D01*
Y982925D01*
X1238094Y982269D01*
X1240062D01*
X1289634Y1028608D02*
X1288978Y1027952D01*
Y1026640D01*
X1289634Y1025984D01*
X1292257D01*
X1292913Y1026640D01*
Y1027952D01*
X1292257Y1028608D01*
X1289634Y1029920D02*
X1288978Y1030576D01*
Y1031888D01*
X1289634Y1032544D01*
X1290290D01*
X1290946Y1031888D01*
Y1031232D01*
Y1031888D01*
X1291601Y1032544D01*
X1292257D01*
X1292913Y1031888D01*
Y1030576D01*
X1292257Y1029920D01*
X1289634Y1033856D02*
X1288978Y1034512D01*
Y1035824D01*
X1289634Y1036479D01*
X1290290D01*
X1290946Y1035824D01*
X1291601Y1036479D01*
X1292257D01*
X1292913Y1035824D01*
Y1034512D01*
X1292257Y1033856D01*
X1291601D01*
X1290946Y1034512D01*
X1290290Y1033856D01*
X1289634D01*
X1290946Y1034512D02*
Y1035824D01*
X1247624Y1336880D02*
X1246968Y1337536D01*
X1245656D01*
X1245000Y1336880D01*
Y1334256D01*
X1245656Y1333600D01*
X1246968D01*
X1247624Y1334256D01*
X1248936Y1336880D02*
X1249592Y1337536D01*
X1250904D01*
X1251560Y1336880D01*
Y1336224D01*
X1250904Y1335568D01*
X1250248D01*
X1250904D01*
X1251560Y1334912D01*
Y1334256D01*
X1250904Y1333600D01*
X1249592D01*
X1248936Y1334256D01*
X1255495Y1333600D02*
X1252872D01*
X1255495Y1336224D01*
Y1336880D01*
X1254839Y1337536D01*
X1253527D01*
X1252872Y1336880D01*
X1248324Y1315180D02*
X1247668Y1315836D01*
X1246356D01*
X1245700Y1315180D01*
Y1312556D01*
X1246356Y1311900D01*
X1247668D01*
X1248324Y1312556D01*
X1252260Y1311900D02*
X1249636D01*
X1252260Y1314524D01*
Y1315180D01*
X1251604Y1315836D01*
X1250292D01*
X1249636Y1315180D01*
X1253572Y1312556D02*
X1254227Y1311900D01*
X1255539D01*
X1256195Y1312556D01*
Y1315180D01*
X1255539Y1315836D01*
X1254227D01*
X1253572Y1315180D01*
Y1314524D01*
X1254227Y1313868D01*
X1256195D01*
X1248424Y1293580D02*
X1247768Y1294236D01*
X1246456D01*
X1245800Y1293580D01*
Y1290956D01*
X1246456Y1290300D01*
X1247768D01*
X1248424Y1290956D01*
X1252359Y1290300D02*
X1249736D01*
X1252359Y1292924D01*
Y1293580D01*
X1251704Y1294236D01*
X1250392D01*
X1249736Y1293580D01*
X1253671Y1294236D02*
X1256295D01*
Y1293580D01*
X1253671Y1290956D01*
Y1290300D01*
X1248024Y1271880D02*
X1247368Y1272536D01*
X1246056D01*
X1245400Y1271880D01*
Y1269256D01*
X1246056Y1268600D01*
X1247368D01*
X1248024Y1269256D01*
X1251960Y1268600D02*
X1249336D01*
X1251960Y1271224D01*
Y1271880D01*
X1251304Y1272536D01*
X1249992D01*
X1249336Y1271880D01*
X1255895Y1272536D02*
X1253271D01*
Y1270568D01*
X1254583Y1271224D01*
X1255239D01*
X1255895Y1270568D01*
Y1269256D01*
X1255239Y1268600D01*
X1253927D01*
X1253271Y1269256D01*
X1248024Y1249880D02*
X1247368Y1250536D01*
X1246056D01*
X1245400Y1249880D01*
Y1247256D01*
X1246056Y1246600D01*
X1247368D01*
X1248024Y1247256D01*
X1251960Y1246600D02*
X1249336D01*
X1251960Y1249224D01*
Y1249880D01*
X1251304Y1250536D01*
X1249992D01*
X1249336Y1249880D01*
X1255239Y1246600D02*
Y1250536D01*
X1253271Y1248568D01*
X1255895D01*
X1247624Y1227780D02*
X1246968Y1228436D01*
X1245656D01*
X1245000Y1227780D01*
Y1225156D01*
X1245656Y1224500D01*
X1246968D01*
X1247624Y1225156D01*
X1251560Y1224500D02*
X1248936D01*
X1251560Y1227124D01*
Y1227780D01*
X1250904Y1228436D01*
X1249592D01*
X1248936Y1227780D01*
X1252872Y1224500D02*
X1254183D01*
X1253527D01*
Y1228436D01*
X1252872Y1227780D01*
X1247224Y1206180D02*
X1246568Y1206836D01*
X1245256D01*
X1244600Y1206180D01*
Y1203556D01*
X1245256Y1202900D01*
X1246568D01*
X1247224Y1203556D01*
X1248536Y1202900D02*
X1249848D01*
X1249192D01*
Y1206836D01*
X1248536Y1206180D01*
X1251816Y1203556D02*
X1252472Y1202900D01*
X1253783D01*
X1254439Y1203556D01*
Y1206180D01*
X1253783Y1206836D01*
X1252472D01*
X1251816Y1206180D01*
Y1205524D01*
X1252472Y1204868D01*
X1254439D01*
X1247224Y1184480D02*
X1246568Y1185136D01*
X1245256D01*
X1244600Y1184480D01*
Y1181856D01*
X1245256Y1181200D01*
X1246568D01*
X1247224Y1181856D01*
X1248536Y1181200D02*
X1249848D01*
X1249192D01*
Y1185136D01*
X1248536Y1184480D01*
X1251816Y1185136D02*
X1254439D01*
Y1184480D01*
X1251816Y1181856D01*
Y1181200D01*
X1248824Y1509680D02*
X1248168Y1510336D01*
X1246856D01*
X1246200Y1509680D01*
Y1507056D01*
X1246856Y1506400D01*
X1248168D01*
X1248824Y1507056D01*
X1250136D02*
X1250792Y1506400D01*
X1252104D01*
X1252759Y1507056D01*
Y1509680D01*
X1252104Y1510336D01*
X1250792D01*
X1250136Y1509680D01*
Y1509024D01*
X1250792Y1508368D01*
X1252759D01*
X1248724Y1488480D02*
X1248068Y1489136D01*
X1246756D01*
X1246100Y1488480D01*
Y1485856D01*
X1246756Y1485200D01*
X1248068D01*
X1248724Y1485856D01*
X1250036Y1488480D02*
X1250692Y1489136D01*
X1252004D01*
X1252660Y1488480D01*
Y1487824D01*
X1252004Y1487168D01*
X1252660Y1486512D01*
Y1485856D01*
X1252004Y1485200D01*
X1250692D01*
X1250036Y1485856D01*
Y1486512D01*
X1250692Y1487168D01*
X1250036Y1487824D01*
Y1488480D01*
X1250692Y1487168D02*
X1252004D01*
X1249224Y1466380D02*
X1248568Y1467036D01*
X1247256D01*
X1246600Y1466380D01*
Y1463756D01*
X1247256Y1463100D01*
X1248568D01*
X1249224Y1463756D01*
X1250536Y1467036D02*
X1253160D01*
Y1466380D01*
X1250536Y1463756D01*
Y1463100D01*
X1248724Y1445080D02*
X1248068Y1445736D01*
X1246756D01*
X1246100Y1445080D01*
Y1442456D01*
X1246756Y1441800D01*
X1248068D01*
X1248724Y1442456D01*
X1252660Y1445736D02*
X1251348Y1445080D01*
X1250036Y1443768D01*
Y1442456D01*
X1250692Y1441800D01*
X1252004D01*
X1252660Y1442456D01*
Y1443112D01*
X1252004Y1443768D01*
X1250036D01*
X1248424Y1423080D02*
X1247768Y1423736D01*
X1246456D01*
X1245800Y1423080D01*
Y1420456D01*
X1246456Y1419800D01*
X1247768D01*
X1248424Y1420456D01*
X1252359Y1423736D02*
X1249736D01*
Y1421768D01*
X1251048Y1422424D01*
X1251704D01*
X1252359Y1421768D01*
Y1420456D01*
X1251704Y1419800D01*
X1250392D01*
X1249736Y1420456D01*
X1248824Y1401380D02*
X1248168Y1402036D01*
X1246856D01*
X1246200Y1401380D01*
Y1398756D01*
X1246856Y1398100D01*
X1248168D01*
X1248824Y1398756D01*
X1250136Y1401380D02*
X1250792Y1402036D01*
X1252104D01*
X1252759Y1401380D01*
Y1400724D01*
X1252104Y1400068D01*
X1251448D01*
X1252104D01*
X1252759Y1399412D01*
Y1398756D01*
X1252104Y1398100D01*
X1250792D01*
X1250136Y1398756D01*
X1248824Y1380180D02*
X1248168Y1380836D01*
X1246856D01*
X1246200Y1380180D01*
Y1377556D01*
X1246856Y1376900D01*
X1248168D01*
X1248824Y1377556D01*
X1252759Y1376900D02*
X1250136D01*
X1252759Y1379524D01*
Y1380180D01*
X1252104Y1380836D01*
X1250792D01*
X1250136Y1380180D01*
X1247624Y1358080D02*
X1246968Y1358736D01*
X1245656D01*
X1245000Y1358080D01*
Y1355456D01*
X1245656Y1354800D01*
X1246968D01*
X1247624Y1355456D01*
X1248936Y1354800D02*
X1250248D01*
X1249592D01*
Y1358736D01*
X1248936Y1358080D01*
D15*
X1216780Y969217D02*
Y973717D01*
X1210779D02*
X1216780D01*
X1210779Y969316D02*
Y973717D01*
Y961716D02*
Y966117D01*
Y961716D02*
X1216780D01*
Y966224D01*
X1201819Y969177D02*
Y973677D01*
X1195819D02*
X1201819D01*
X1195819Y969277D02*
Y973677D01*
Y961677D02*
Y966077D01*
Y961677D02*
X1201819D01*
Y966185D01*
X1188433Y968862D02*
Y973362D01*
X1182433D02*
X1188433D01*
X1182433Y968962D02*
Y973362D01*
Y961362D02*
Y965762D01*
Y961362D02*
X1188433D01*
Y965870D01*
X1201724Y801874D02*
Y806374D01*
Y801874D02*
X1207724D01*
Y806274D01*
Y809474D02*
Y813874D01*
X1201724D02*
X1207724D01*
X1201724Y809366D02*
Y813874D01*
X1182709Y802228D02*
Y806728D01*
Y802228D02*
X1188709D01*
Y806628D01*
Y809828D02*
Y814228D01*
X1182709D02*
X1188709D01*
X1182709Y809721D02*
Y814228D01*
X1349457Y884677D02*
Y888677D01*
X1343457D02*
X1349457D01*
X1343457Y884677D02*
Y888677D01*
X1349457Y876677D02*
Y880677D01*
X1343457Y876677D02*
X1349457D01*
X1343457D02*
Y880677D01*
X1344828Y882677D02*
X1348057D01*
X1327236Y759978D02*
X1331236D01*
Y765978D01*
X1327236D02*
X1331236D01*
X1319236Y759978D02*
X1323236D01*
X1319236D02*
Y765978D01*
X1323236D01*
X1325236Y761378D02*
Y764606D01*
X1247978Y951968D02*
X1251206D01*
X1246606Y945969D02*
Y949969D01*
Y945969D02*
X1252606D01*
Y949969D01*
X1246606Y953969D02*
Y957969D01*
X1252606D01*
Y953969D02*
Y957969D01*
X1341583Y935465D02*
Y939465D01*
X1335583D02*
X1341583D01*
X1335583Y935465D02*
Y939465D01*
X1341583Y927465D02*
Y931465D01*
X1335583Y927465D02*
X1341583D01*
X1335583D02*
Y931465D01*
X1336954Y933465D02*
X1340183D01*
X1318748Y958693D02*
Y962693D01*
X1312748D02*
X1318748D01*
X1312748Y958693D02*
Y962693D01*
X1318748Y950693D02*
Y954693D01*
X1312748Y950693D02*
X1318748D01*
X1312748D02*
Y954693D01*
X1314120Y956693D02*
X1317348D01*
X1237441Y973189D02*
Y976417D01*
X1231441Y977789D02*
X1235441D01*
X1231441Y971789D02*
Y977789D01*
Y971789D02*
X1235441D01*
X1239441Y977789D02*
X1243441D01*
Y971789D02*
Y977789D01*
X1239441Y971789D02*
X1243441D01*
X1245614Y1503014D02*
X1249614D01*
X1245614Y1497014D02*
Y1503014D01*
Y1497014D02*
X1249614D01*
X1253614Y1503014D02*
X1257614D01*
Y1497014D02*
Y1503014D01*
X1253614Y1497014D02*
X1257614D01*
X1251614Y1498386D02*
Y1501614D01*
X1313024Y879677D02*
X1317024D01*
Y885677D01*
X1313024D02*
X1317024D01*
X1305024Y879677D02*
X1309024D01*
X1305024D02*
Y885677D01*
X1309024D01*
X1311024Y881077D02*
Y884305D01*
X1225890Y885283D02*
X1229890D01*
X1225890Y879284D02*
Y885283D01*
Y879284D02*
X1229890D01*
X1233890Y885283D02*
X1237890D01*
Y879284D02*
Y885283D01*
X1233890Y879284D02*
X1237890D01*
X1231890Y880655D02*
Y883883D01*
X1295425Y1027071D02*
Y1031071D01*
Y1027071D02*
X1301425D01*
Y1031071D01*
X1295425Y1035071D02*
Y1039071D01*
X1301425D01*
Y1035071D02*
Y1039071D01*
X1296825Y1033071D02*
X1300054D01*
X1245181Y1286858D02*
X1249181D01*
X1245181Y1280858D02*
Y1286858D01*
Y1280858D02*
X1249181D01*
X1253181Y1286858D02*
X1257181D01*
Y1280858D02*
Y1286858D01*
X1253181Y1280858D02*
X1257181D01*
X1251181Y1282230D02*
Y1285458D01*
X1250394Y1346797D02*
Y1350025D01*
X1252394Y1345425D02*
X1256394D01*
Y1351425D01*
X1252394D02*
X1256394D01*
X1244394Y1345425D02*
X1248394D01*
X1244394D02*
Y1351425D01*
X1248394D01*
X1251575Y1368844D02*
Y1372072D01*
X1253575Y1367472D02*
X1257575D01*
Y1373472D01*
X1253575D02*
X1257575D01*
X1245575Y1367472D02*
X1249575D01*
X1245575D02*
Y1373472D01*
X1249575D01*
X1251575Y1390104D02*
Y1393332D01*
X1253575Y1388732D02*
X1257575D01*
Y1394732D01*
X1253575D02*
X1257575D01*
X1245575Y1388732D02*
X1249575D01*
X1245575D02*
Y1394732D01*
X1249575D01*
X1251221Y1411772D02*
Y1415000D01*
X1253220Y1410400D02*
X1257220D01*
Y1416400D01*
X1253220D02*
X1257220D01*
X1245220Y1410400D02*
X1249220D01*
X1245220D02*
Y1416400D01*
X1249220D01*
X1251535Y1433819D02*
Y1437047D01*
X1253535Y1432447D02*
X1257535D01*
Y1438447D01*
X1253535D02*
X1257535D01*
X1245535Y1432447D02*
X1249535D01*
X1245535D02*
Y1438447D01*
X1249535D01*
X1251968Y1455065D02*
Y1458293D01*
X1253969Y1453693D02*
X1257969D01*
Y1459693D01*
X1253969D02*
X1257969D01*
X1245969Y1453693D02*
X1249969D01*
X1245969D02*
Y1459693D01*
X1249969D01*
X1251535Y1477126D02*
Y1480354D01*
X1253535Y1475754D02*
X1257535D01*
Y1481754D01*
X1253535D02*
X1257535D01*
X1245535Y1475754D02*
X1249535D01*
X1245535D02*
Y1481754D01*
X1249535D01*
X1246432Y1025591D02*
X1249660D01*
X1251031Y1027591D02*
Y1031591D01*
X1245032D02*
X1251031D01*
X1245032Y1027591D02*
Y1031591D01*
X1251031Y1019591D02*
Y1023591D01*
X1245032Y1019591D02*
X1251031D01*
X1245032D02*
Y1023591D01*
X1250000Y1173175D02*
Y1176403D01*
X1252000Y1171803D02*
X1256000D01*
Y1177803D01*
X1252000D02*
X1256000D01*
X1244000Y1171803D02*
X1248000D01*
X1244000D02*
Y1177803D01*
X1248000D01*
X1250000Y1194828D02*
Y1198057D01*
X1252000Y1193457D02*
X1256000D01*
Y1199457D01*
X1252000D02*
X1256000D01*
X1244000Y1193457D02*
X1248000D01*
X1244000D02*
Y1199457D01*
X1248000D01*
X1250394Y1216482D02*
Y1219710D01*
X1252394Y1215110D02*
X1256394D01*
Y1221110D01*
X1252394D02*
X1256394D01*
X1244394Y1215110D02*
X1248394D01*
X1244394D02*
Y1221110D01*
X1248394D01*
X1250787Y1238529D02*
Y1241757D01*
X1252787Y1237158D02*
X1256787D01*
Y1243157D01*
X1252787D02*
X1256787D01*
X1244787Y1237158D02*
X1248787D01*
X1244787D02*
Y1243157D01*
X1248787D01*
X1250787Y1260576D02*
Y1263805D01*
X1252787Y1259205D02*
X1256787D01*
Y1265205D01*
X1252787D02*
X1256787D01*
X1244787Y1259205D02*
X1248787D01*
X1244787D02*
Y1265205D01*
X1248787D01*
X1251142Y1303898D02*
Y1307126D01*
X1253142Y1302526D02*
X1257142D01*
Y1308526D01*
X1253142D02*
X1257142D01*
X1245142Y1302526D02*
X1249142D01*
X1245142D02*
Y1308526D01*
X1249142D01*
X1250394Y1325537D02*
Y1328765D01*
X1252394Y1324165D02*
X1256394D01*
Y1330165D01*
X1252394D02*
X1256394D01*
X1244394Y1324165D02*
X1248394D01*
X1244394D02*
Y1330165D01*
X1248394D01*
D16*
X1313780Y1089567D02*
X1324016D01*
X1313780Y1063189D02*
X1324016D01*
X1313780D02*
Y1089567D01*
X1324016Y1063189D02*
Y1089567D01*
X1303937Y1039764D02*
X1308661D01*
X1318898D02*
X1323228D01*
Y1022047D02*
Y1039764D01*
X1320079Y1018898D02*
X1323228Y1022047D01*
X1318110Y1018898D02*
X1320079D01*
X1307087D02*
X1309449D01*
X1303937Y1022047D02*
X1307087Y1018898D01*
X1303937Y1022047D02*
Y1039764D01*
X1356557Y927110D02*
Y939110D01*
X1350558D02*
X1356557D01*
X1350558Y927110D02*
X1356557D01*
X1350558D02*
Y939110D01*
X1335433Y901181D02*
Y918898D01*
X1332283Y922047D02*
X1335433Y918898D01*
X1329921Y922047D02*
X1332283D01*
X1319291D02*
X1321260D01*
X1316142Y918898D02*
X1319291Y922047D01*
X1316142Y901181D02*
Y918898D01*
Y901181D02*
X1320472D01*
X1330709D02*
X1335433D01*
X1294685Y971063D02*
Y1008465D01*
X1257283Y971063D02*
Y1008465D01*
X1294685D01*
X1257283Y971063D02*
X1294685D01*
X1248626Y892315D02*
X1293508D01*
Y889362D02*
Y892315D01*
X1248626Y873024D02*
Y875976D01*
Y873024D02*
X1293508D01*
Y875976D01*
X1248626Y889362D02*
Y892315D01*
X1198819Y765748D02*
X1208719D01*
X1198819Y755748D02*
Y775748D01*
Y755748D02*
X1208819D01*
Y775748D01*
X1198819D02*
X1208819D01*
X1180709Y765748D02*
X1190609D01*
X1180709Y755748D02*
Y775748D01*
Y755748D02*
X1190709D01*
Y775748D01*
X1180709D02*
X1190709D01*
X1265354Y1330315D02*
X1285039D01*
Y1317323D02*
Y1323622D01*
X1265354Y1310630D02*
X1285039D01*
X1265354Y1317323D02*
Y1323622D01*
Y1308661D02*
X1285039D01*
Y1295669D02*
Y1301968D01*
X1265354Y1288976D02*
X1285039D01*
X1265354Y1295669D02*
Y1301968D01*
Y1287008D02*
X1285039D01*
Y1274016D02*
Y1280315D01*
X1265354Y1267323D02*
X1285039D01*
X1265354Y1274016D02*
Y1280315D01*
Y1265354D02*
X1285039D01*
Y1252362D02*
Y1258661D01*
X1265354Y1245669D02*
X1285039D01*
X1265354Y1252362D02*
Y1258661D01*
Y1243701D02*
X1285039D01*
Y1230709D02*
Y1237008D01*
X1265354Y1224016D02*
X1285039D01*
X1265354Y1230709D02*
Y1237008D01*
Y1222047D02*
X1285039D01*
Y1209055D02*
Y1215354D01*
X1265354Y1202362D02*
X1285039D01*
X1265354Y1209055D02*
Y1215354D01*
Y1200394D02*
X1285039D01*
Y1187402D02*
Y1193701D01*
X1265354Y1180709D02*
X1285039D01*
X1265354Y1187402D02*
Y1193701D01*
Y1178740D02*
X1285039D01*
Y1165748D02*
Y1172047D01*
X1265354Y1159055D02*
X1285039D01*
X1265354Y1165748D02*
Y1172047D01*
Y1338976D02*
Y1345276D01*
Y1332283D02*
X1285039D01*
Y1338976D02*
Y1345276D01*
X1265354Y1351968D02*
X1285039D01*
X1265354Y1490551D02*
Y1496850D01*
Y1483858D02*
X1285039D01*
Y1490551D02*
Y1496850D01*
X1265354Y1503543D02*
X1285039D01*
X1265354Y1468898D02*
Y1475197D01*
Y1462205D02*
X1285039D01*
Y1468898D02*
Y1475197D01*
X1265354Y1481890D02*
X1285039D01*
X1265354Y1447244D02*
Y1453543D01*
Y1440551D02*
X1285039D01*
Y1447244D02*
Y1453543D01*
X1265354Y1460236D02*
X1285039D01*
X1265354Y1425591D02*
Y1431890D01*
Y1418898D02*
X1285039D01*
Y1425591D02*
Y1431890D01*
X1265354Y1438583D02*
X1285039D01*
X1265354Y1403937D02*
Y1410236D01*
Y1397244D02*
X1285039D01*
Y1403937D02*
Y1410236D01*
X1265354Y1416929D02*
X1285039D01*
X1265354Y1382283D02*
Y1388583D01*
Y1375591D02*
X1285039D01*
Y1382283D02*
Y1388583D01*
X1265354Y1395276D02*
X1285039D01*
X1265354Y1360630D02*
Y1366929D01*
Y1353937D02*
X1285039D01*
Y1360630D02*
Y1366929D01*
X1265354Y1373622D02*
X1285039D01*
X1195000Y1108622D02*
X1205000D01*
X1195000D02*
Y1158622D01*
X1205000Y1108622D02*
Y1158622D01*
X1195000D02*
X1205000D01*
X1301575Y656890D02*
Y771063D01*
X1238583Y656890D02*
X1301575D01*
X1238583D02*
Y771063D01*
X1301575D01*
X1238583Y676575D02*
X1301575D01*
M02*
