M48
;Layer_Color=9474304
;FILE_FORMAT=2:5
INCH,TZ
;TYPE=PLATED
T1F00S00C0.01200
T2F00S00C0.02800
T3F00S00C0.03543
T4F00S00C0.05118
T5F00S00C0.07874
T6F00S00C0.11811
%
T01
X1170000Y690000
X1185000
X1200000
X1215000
X1230000
Y720000
Y735000
Y750000
Y765000
X1215000
Y780000
Y750000
Y735000
Y705000
X1200000
Y720000
X1185000
Y735000
X1170000
Y750000
Y765000
Y780000
Y720000
Y705000
X1185000
X1260000
X1275000
Y720000
Y735000
X1260000
Y750000
Y780000
X1275000
X1290000
X1305000
Y765000
X1335000
X1350000
X1365000
X1380000
Y780000
X1365000
X1350000
X1335000
Y750000
X1350000
X1365000
X1380000
Y735000
Y720000
Y705000
Y690000
X1365000
Y705000
Y720000
Y735000
X1350000
Y720000
Y705000
Y690000
X1335000
Y705000
Y720000
Y735000
X1320000
Y750000
Y720000
X1305000Y735000
Y705000
X1275000Y690000
X1260000
Y720000
Y795000
Y810000
X1275000
Y825000
X1290000
Y840000
Y855000
X1305000
Y870000
X1320000
Y885000
X1335000
X1350000Y900000
Y915000
X1335000
X1350000Y870000
X1380000
Y885000
Y855000
Y840000
Y825000
Y810000
Y795000
X1365000
Y810000
Y825000
Y840000
X1350000Y825000
Y810000
Y795000
X1335000
Y810000
Y855000
X1320000Y840000
X1275000
Y870000
Y885000
Y900000
Y915000
Y930000
X1260000
Y915000
Y900000
Y870000
Y855000
Y825000
X1245000Y840000
Y855000
Y870000
X1230000
Y855000
Y840000
Y825000
Y810000
Y795000
X1170000
Y810000
Y825000
Y840000
Y855000
Y870000
X1185000
X1200000
Y885000
Y900000
Y915000
Y930000
X1185000
Y915000
Y900000
Y885000
X1170000
X1230000Y900000
X1245000
Y915000
Y930000
X1230000
Y915000
Y945000
X1170000Y960000
Y975000
Y990000
X1185000
Y1005000
X1200000
X1185000Y1020000
Y1035000
X1170000
Y1050000
Y1065000
X1200000Y1080000
X1230000
X1245000Y1050000
X1215000Y1035000
X1170000Y1020000
Y1005000
X1260000
X1275000
X1290000
Y1020000
Y990000
Y975000
X1275000
Y990000
X1260000
Y975000
X1305000Y960000
X1320000Y945000
X1380000Y960000
Y975000
Y990000
Y1005000
Y1020000
Y1035000
Y1050000
Y1065000
X1350000Y1080000
Y1050000
X1365000Y1095000
Y1110000
Y1125000
Y1140000
X1380000
Y1155000
Y1170000
Y1185000
Y1200000
Y1215000
Y1230000
Y1245000
X1365000
Y1230000
Y1215000
Y1200000
Y1185000
X1350000
Y1200000
Y1215000
Y1230000
Y1245000
X1335000
Y1230000
Y1215000
Y1200000
Y1185000
X1350000Y1170000
Y1140000
Y1125000
Y1110000
X1335000Y1140000
X1305000Y1170000
Y1185000
X1275000Y1200000
X1245000Y1230000
X1215000Y1200000
Y1185000
Y1170000
Y1155000
X1200000Y1170000
Y1185000
Y1200000
Y1215000
X1185000
Y1230000
Y1245000
X1170000
Y1230000
Y1215000
Y1200000
X1185000
Y1185000
Y1170000
X1170000
Y1185000
Y1155000
Y1140000
X1200000Y1095000
X1185000Y1260000
Y1275000
Y1290000
Y1305000
Y1320000
Y1335000
Y1350000
Y1365000
Y1380000
Y1395000
X1170000
Y1380000
Y1365000
Y1350000
Y1335000
Y1320000
X1305000
X1335000
X1350000
X1365000
X1380000
Y1335000
Y1350000
Y1365000
Y1380000
Y1395000
X1365000
Y1380000
Y1365000
Y1350000
Y1335000
X1350000
Y1350000
Y1365000
Y1380000
Y1395000
X1335000
Y1380000
Y1365000
Y1350000
Y1335000
X1320000
Y1350000
Y1365000
Y1380000
Y1395000
X1305000Y1380000
Y1365000
Y1350000
X1335000Y1305000
X1350000
X1365000
Y1290000
Y1275000
Y1260000
X1350000
Y1275000
Y1290000
X1335000
Y1275000
Y1260000
Y1410000
X1350000
X1365000
X1380000
Y1425000
Y1440000
Y1455000
Y1470000
Y1485000
Y1500000
X1365000
Y1485000
Y1470000
Y1455000
Y1440000
Y1425000
X1350000
Y1440000
Y1455000
Y1470000
Y1485000
Y1500000
X1335000
Y1485000
Y1470000
Y1455000
Y1440000
Y1425000
X1320000
Y1440000
Y1455000
Y1470000
Y1485000
Y1500000
X1305000
Y1485000
Y1470000
X1275000
Y1485000
Y1500000
Y1455000
Y1440000
Y1425000
Y1410000
X1320000
X1245000Y1470000
Y1485000
X1230000
Y1500000
X1215000
Y1485000
Y1470000
X1200000
Y1485000
Y1500000
X1185000
Y1485000
Y1470000
Y1455000
X1200000
X1185000Y1440000
Y1425000
Y1410000
X1170000
Y1425000
Y1440000
Y1455000
Y1470000
Y1485000
Y1500000
T02
X1311811Y699213
X1320079Y694488
X1340158Y891732
X1357480Y901575
X1310236Y905512
X1224409Y961417
X1224803Y1000000
X1234646Y1019291
X1211811Y1027559
X1207087Y1040945
X1212992Y1057087
Y1081496
X1258268Y1044094
X1265748Y1033071
X1257874Y1020472
X1308661Y1005512
X1306693Y998425
X1355512Y996220
Y1006221
Y1016220
Y1026221
X1348032Y1042126
X1355512Y986220
Y976221
Y966220
Y956221
X1305512Y940158
X1290551Y947638
X1277165Y959055
X1319685Y1150000
X1294488Y1175591
X1300000Y1196850
X1305118Y1218110
X1310236Y1240551
X1199213Y1231890
X1247638Y1276378
X1242913Y1288976
X1237402Y1302331
X1235827Y1314961
X1233858Y1325591
X1231039Y1336220
X1228740Y1348425
X1227953Y1362992
X1225197Y1371260
Y1381890
X1224803Y1391339
Y1399606
X1304724Y1391732
X1299606Y1370472
X1294094Y1348425
X1294291Y1326575
X1300000Y1305118
X1305709Y1283661
X1310630Y1262205
X1309842Y1413780
X1310236Y1435827
X1305315Y1457283
X1299606Y1478740
X1293898Y1500197
X1229921Y1468110
X1230315Y1456693
Y1447244
X1229921Y1438583
X1224803Y1408661
T03
X1185709Y760748
Y770748
X1203819
Y760748
X1265569Y800579
X1275569
X1200000Y1113622
Y1123622
Y1133622
Y1143622
Y1153622
T04
X1361024Y1150000
Y1169685
T05
X1339370Y1159842
X1338976Y1174409
T06
X1379528Y898228
Y921850
X1169291
Y898228
Y945472
Y1079331
X1379528Y1078150
Y945472
Y1101772
Y1125394
X1169291Y1126575
Y1102953
Y1260433
Y1284055
Y1307677
X1379528
Y1284055
Y1260433
M30
